<mxfile host="Electron" agent="Mozilla/5.0 (X11; Linux x86_64) AppleWebKit/537.36 (KHTML, like Gecko) draw.io/24.7.17 Chrome/128.0.6613.36 Electron/32.0.1 Safari/537.36" version="24.7.17" pages="3">
  <diagram id="dRIN9ew-7M8BXcXyrru2" name="mid_fusion">
    <mxGraphModel dx="819" dy="479" grid="1" gridSize="10" guides="1" tooltips="1" connect="1" arrows="1" fold="1" page="1" pageScale="1" pageWidth="850" pageHeight="1100" math="1" shadow="0">
      <root>
        <mxCell id="0" />
        <mxCell id="1" parent="0" />
        <mxCell id="-MGSFOo3A4PHDDXzh-WH-28" style="edgeStyle=orthogonalEdgeStyle;shape=connector;curved=0;rounded=1;orthogonalLoop=1;jettySize=auto;html=1;exitX=1;exitY=0.5;exitDx=0;exitDy=0;entryX=0;entryY=0.5;entryDx=0;entryDy=0;strokeColor=default;align=center;verticalAlign=middle;fontFamily=Helvetica;fontSize=11;fontColor=default;labelBackgroundColor=default;endArrow=blockThin;endFill=1;" parent="1" source="-MGSFOo3A4PHDDXzh-WH-2" target="-MGSFOo3A4PHDDXzh-WH-9" edge="1">
          <mxGeometry relative="1" as="geometry">
            <Array as="points">
              <mxPoint x="180" y="260" />
              <mxPoint x="180" y="300" />
            </Array>
          </mxGeometry>
        </mxCell>
        <mxCell id="iPBxeWhNPRZcVfTU-J6T-1" style="edgeStyle=orthogonalEdgeStyle;rounded=1;orthogonalLoop=1;jettySize=auto;html=1;entryX=0.5;entryY=0;entryDx=0;entryDy=0;curved=0;" edge="1" parent="1" source="-MGSFOo3A4PHDDXzh-WH-2" target="-MGSFOo3A4PHDDXzh-WH-4">
          <mxGeometry relative="1" as="geometry" />
        </mxCell>
        <mxCell id="-MGSFOo3A4PHDDXzh-WH-2" value="DF Dataset" style="shape=datastore;whiteSpace=wrap;html=1;rotation=-90;" parent="1" vertex="1">
          <mxGeometry x="105" y="235" width="60" height="40" as="geometry" />
        </mxCell>
        <mxCell id="-MGSFOo3A4PHDDXzh-WH-12" style="edgeStyle=orthogonalEdgeStyle;shape=connector;curved=0;rounded=1;orthogonalLoop=1;jettySize=auto;html=1;strokeColor=default;align=center;verticalAlign=middle;fontFamily=Helvetica;fontSize=11;fontColor=default;labelBackgroundColor=default;endArrow=blockThin;endFill=1;" parent="1" source="-MGSFOo3A4PHDDXzh-WH-4" target="-MGSFOo3A4PHDDXzh-WH-10" edge="1">
          <mxGeometry relative="1" as="geometry" />
        </mxCell>
        <mxCell id="-MGSFOo3A4PHDDXzh-WH-4" value="Transcription" style="rounded=1;whiteSpace=wrap;html=1;fontFamily=Helvetica;fontSize=11;labelBackgroundColor=none;fillColor=#ffe6cc;strokeColor=#d79b00;rotation=-90;" parent="1" vertex="1">
          <mxGeometry x="180" y="210" width="70" height="20" as="geometry" />
        </mxCell>
        <mxCell id="-MGSFOo3A4PHDDXzh-WH-30" style="edgeStyle=orthogonalEdgeStyle;shape=connector;curved=0;rounded=1;orthogonalLoop=1;jettySize=auto;html=1;exitX=1;exitY=0.5;exitDx=0;exitDy=0;entryX=0;entryY=0.5;entryDx=0;entryDy=0;strokeColor=default;align=center;verticalAlign=middle;fontFamily=Helvetica;fontSize=11;fontColor=default;labelBackgroundColor=default;endArrow=blockThin;endFill=1;" parent="1" source="-MGSFOo3A4PHDDXzh-WH-9" target="-MGSFOo3A4PHDDXzh-WH-18" edge="1">
          <mxGeometry relative="1" as="geometry" />
        </mxCell>
        <mxCell id="-MGSFOo3A4PHDDXzh-WH-9" value="Audio Model" style="rounded=1;whiteSpace=wrap;html=1;fontFamily=Helvetica;fontSize=11;labelBackgroundColor=none;fillColor=#f8cecc;strokeColor=#b85450;" parent="1" vertex="1">
          <mxGeometry x="240" y="280" width="100" height="40" as="geometry" />
        </mxCell>
        <mxCell id="-MGSFOo3A4PHDDXzh-WH-29" style="edgeStyle=orthogonalEdgeStyle;shape=connector;curved=0;rounded=1;orthogonalLoop=1;jettySize=auto;html=1;exitX=1;exitY=0.5;exitDx=0;exitDy=0;entryX=0;entryY=0.5;entryDx=0;entryDy=0;strokeColor=default;align=center;verticalAlign=middle;fontFamily=Helvetica;fontSize=11;fontColor=default;labelBackgroundColor=default;endArrow=blockThin;endFill=1;" parent="1" source="-MGSFOo3A4PHDDXzh-WH-10" target="-MGSFOo3A4PHDDXzh-WH-16" edge="1">
          <mxGeometry relative="1" as="geometry" />
        </mxCell>
        <mxCell id="-MGSFOo3A4PHDDXzh-WH-10" value="Text Model&lt;br&gt;(Context?)" style="rounded=1;whiteSpace=wrap;html=1;fontFamily=Helvetica;fontSize=11;labelBackgroundColor=none;fillColor=#dae8fc;strokeColor=#6c8ebf;" parent="1" vertex="1">
          <mxGeometry x="240" y="200" width="100" height="40" as="geometry" />
        </mxCell>
        <mxCell id="iPBxeWhNPRZcVfTU-J6T-5" style="edgeStyle=orthogonalEdgeStyle;shape=connector;curved=0;rounded=1;orthogonalLoop=1;jettySize=auto;html=1;entryX=0.5;entryY=0;entryDx=0;entryDy=0;strokeColor=default;align=center;verticalAlign=middle;fontFamily=Helvetica;fontSize=11;fontColor=default;labelBackgroundColor=default;endArrow=classic;" edge="1" parent="1" source="-MGSFOo3A4PHDDXzh-WH-16" target="-MGSFOo3A4PHDDXzh-WH-19">
          <mxGeometry relative="1" as="geometry" />
        </mxCell>
        <mxCell id="-MGSFOo3A4PHDDXzh-WH-16" value="$$f_\theta$$&lt;div&gt;Text Features&lt;/div&gt;" style="text;html=1;align=center;verticalAlign=middle;whiteSpace=wrap;rounded=0;fontFamily=Helvetica;fontSize=11;fontColor=default;labelBackgroundColor=none;fillColor=none;opacity=0;shadow=0;" parent="1" vertex="1">
          <mxGeometry x="370" y="205" width="40" height="30" as="geometry" />
        </mxCell>
        <mxCell id="iPBxeWhNPRZcVfTU-J6T-6" style="edgeStyle=orthogonalEdgeStyle;shape=connector;curved=0;rounded=1;orthogonalLoop=1;jettySize=auto;html=1;entryX=0.5;entryY=0;entryDx=0;entryDy=0;strokeColor=default;align=center;verticalAlign=middle;fontFamily=Helvetica;fontSize=11;fontColor=default;labelBackgroundColor=default;endArrow=classic;" edge="1" parent="1" source="-MGSFOo3A4PHDDXzh-WH-18" target="-MGSFOo3A4PHDDXzh-WH-19">
          <mxGeometry relative="1" as="geometry" />
        </mxCell>
        <mxCell id="-MGSFOo3A4PHDDXzh-WH-18" value="$$f_\phi$$ Audio Features" style="text;html=1;align=center;verticalAlign=middle;whiteSpace=wrap;rounded=0;fontFamily=Helvetica;fontSize=11;fontColor=default;labelBackgroundColor=none;fillColor=none;opacity=0;shadow=0;" parent="1" vertex="1">
          <mxGeometry x="370" y="270" width="40" height="60" as="geometry" />
        </mxCell>
        <mxCell id="iPBxeWhNPRZcVfTU-J6T-9" style="edgeStyle=orthogonalEdgeStyle;shape=connector;curved=0;rounded=1;orthogonalLoop=1;jettySize=auto;html=1;entryX=0;entryY=0.5;entryDx=0;entryDy=0;strokeColor=default;align=center;verticalAlign=middle;fontFamily=Helvetica;fontSize=11;fontColor=default;labelBackgroundColor=default;endArrow=classic;" edge="1" parent="1" source="-MGSFOo3A4PHDDXzh-WH-19" target="-MGSFOo3A4PHDDXzh-WH-32">
          <mxGeometry relative="1" as="geometry" />
        </mxCell>
        <mxCell id="-MGSFOo3A4PHDDXzh-WH-19" value="Head" style="rounded=1;whiteSpace=wrap;html=1;fontFamily=Helvetica;fontSize=11;labelBackgroundColor=none;fillColor=#e1d5e7;strokeColor=#9673a6;rotation=-90;" parent="1" vertex="1">
          <mxGeometry x="440" y="247.5" width="56.25" height="25" as="geometry" />
        </mxCell>
        <mxCell id="-MGSFOo3A4PHDDXzh-WH-32" value="$$\hat{y}$$ Prediction" style="text;html=1;align=center;verticalAlign=middle;whiteSpace=wrap;rounded=0;fontFamily=Helvetica;fontSize=11;fontColor=default;labelBackgroundColor=none;fillColor=none;opacity=0;shadow=0;" parent="1" vertex="1">
          <mxGeometry x="500" y="245" width="50" height="30" as="geometry" />
        </mxCell>
        <mxCell id="-MGSFOo3A4PHDDXzh-WH-34" value="" style="shape=mxgraph.signs.nature.snowflake;html=1;pointerEvents=1;fillColor=#000000;strokeColor=none;verticalLabelPosition=bottom;verticalAlign=top;align=center;fontFamily=Helvetica;fontSize=11;fontColor=default;labelBackgroundColor=default;opacity=50;" parent="1" vertex="1">
          <mxGeometry x="325" y="225" width="15" height="15" as="geometry" />
        </mxCell>
        <mxCell id="-MGSFOo3A4PHDDXzh-WH-35" value="" style="shape=mxgraph.signs.nature.snowflake;html=1;pointerEvents=1;fillColor=#000000;strokeColor=none;verticalLabelPosition=bottom;verticalAlign=top;align=center;fontFamily=Helvetica;fontSize=11;fontColor=default;labelBackgroundColor=default;opacity=50;" parent="1" vertex="1">
          <mxGeometry x="325" y="305" width="15" height="15" as="geometry" />
        </mxCell>
      </root>
    </mxGraphModel>
  </diagram>
  <diagram id="rChjDaJ7rgbb-_5XNU8n" name="late_fusion">
    <mxGraphModel dx="1195" dy="698" grid="1" gridSize="10" guides="1" tooltips="1" connect="1" arrows="1" fold="1" page="1" pageScale="1" pageWidth="850" pageHeight="1100" math="1" shadow="0">
      <root>
        <mxCell id="0" />
        <mxCell id="1" parent="0" />
        <mxCell id="Fa7wodahPX9oY0jX7aTg-1" style="edgeStyle=orthogonalEdgeStyle;shape=connector;curved=0;rounded=1;orthogonalLoop=1;jettySize=auto;html=1;entryX=0;entryY=0.5;entryDx=0;entryDy=0;strokeColor=default;align=center;verticalAlign=middle;fontFamily=Helvetica;fontSize=11;fontColor=default;labelBackgroundColor=default;endArrow=blockThin;endFill=1;" edge="1" parent="1" source="Fa7wodahPX9oY0jX7aTg-3" target="Fa7wodahPX9oY0jX7aTg-5">
          <mxGeometry relative="1" as="geometry" />
        </mxCell>
        <mxCell id="Fa7wodahPX9oY0jX7aTg-2" style="edgeStyle=orthogonalEdgeStyle;shape=connector;curved=0;rounded=1;orthogonalLoop=1;jettySize=auto;html=1;exitX=1;exitY=0.5;exitDx=0;exitDy=0;entryX=0;entryY=0.5;entryDx=0;entryDy=0;strokeColor=default;align=center;verticalAlign=middle;fontFamily=Helvetica;fontSize=11;fontColor=default;labelBackgroundColor=default;endArrow=blockThin;endFill=1;" edge="1" parent="1" source="Fa7wodahPX9oY0jX7aTg-3" target="Fa7wodahPX9oY0jX7aTg-7">
          <mxGeometry relative="1" as="geometry">
            <Array as="points">
              <mxPoint x="160" y="260" />
              <mxPoint x="160" y="300" />
            </Array>
          </mxGeometry>
        </mxCell>
        <mxCell id="Fa7wodahPX9oY0jX7aTg-3" value="Deepfake Dataset" style="shape=datastore;whiteSpace=wrap;html=1;" vertex="1" parent="1">
          <mxGeometry x="70" y="230" width="60" height="60" as="geometry" />
        </mxCell>
        <mxCell id="Fa7wodahPX9oY0jX7aTg-4" style="edgeStyle=orthogonalEdgeStyle;shape=connector;curved=0;rounded=1;orthogonalLoop=1;jettySize=auto;html=1;strokeColor=default;align=center;verticalAlign=middle;fontFamily=Helvetica;fontSize=11;fontColor=default;labelBackgroundColor=default;endArrow=blockThin;endFill=1;" edge="1" parent="1" source="Fa7wodahPX9oY0jX7aTg-5" target="Fa7wodahPX9oY0jX7aTg-9">
          <mxGeometry relative="1" as="geometry" />
        </mxCell>
        <mxCell id="Fa7wodahPX9oY0jX7aTg-5" value="Transcription" style="rounded=1;whiteSpace=wrap;html=1;fontFamily=Helvetica;fontSize=11;labelBackgroundColor=none;fillColor=#ffe6cc;strokeColor=#d79b00;" vertex="1" parent="1">
          <mxGeometry x="190" y="200" width="70" height="40" as="geometry" />
        </mxCell>
        <mxCell id="Fa7wodahPX9oY0jX7aTg-6" style="edgeStyle=orthogonalEdgeStyle;shape=connector;curved=0;rounded=1;orthogonalLoop=1;jettySize=auto;html=1;exitX=1;exitY=0.5;exitDx=0;exitDy=0;entryX=0;entryY=0.5;entryDx=0;entryDy=0;strokeColor=default;align=center;verticalAlign=middle;fontFamily=Helvetica;fontSize=11;fontColor=default;labelBackgroundColor=default;endArrow=blockThin;endFill=1;" edge="1" parent="1" source="Fa7wodahPX9oY0jX7aTg-7" target="Fa7wodahPX9oY0jX7aTg-13">
          <mxGeometry relative="1" as="geometry" />
        </mxCell>
        <mxCell id="Fa7wodahPX9oY0jX7aTg-7" value="Audio Model" style="rounded=1;whiteSpace=wrap;html=1;fontFamily=Helvetica;fontSize=11;labelBackgroundColor=none;fillColor=#f8cecc;strokeColor=#b85450;" vertex="1" parent="1">
          <mxGeometry x="300" y="280" width="100" height="40" as="geometry" />
        </mxCell>
        <mxCell id="Fa7wodahPX9oY0jX7aTg-8" style="edgeStyle=orthogonalEdgeStyle;shape=connector;curved=0;rounded=1;orthogonalLoop=1;jettySize=auto;html=1;exitX=1;exitY=0.5;exitDx=0;exitDy=0;entryX=0;entryY=0.5;entryDx=0;entryDy=0;strokeColor=default;align=center;verticalAlign=middle;fontFamily=Helvetica;fontSize=11;fontColor=default;labelBackgroundColor=default;endArrow=blockThin;endFill=1;" edge="1" parent="1" source="Fa7wodahPX9oY0jX7aTg-9" target="Fa7wodahPX9oY0jX7aTg-11">
          <mxGeometry relative="1" as="geometry" />
        </mxCell>
        <mxCell id="Fa7wodahPX9oY0jX7aTg-9" value="Text Model&lt;br&gt;(Context?)" style="rounded=1;whiteSpace=wrap;html=1;fontFamily=Helvetica;fontSize=11;labelBackgroundColor=none;fillColor=#dae8fc;strokeColor=#6c8ebf;" vertex="1" parent="1">
          <mxGeometry x="300" y="200" width="100" height="40" as="geometry" />
        </mxCell>
        <mxCell id="Fa7wodahPX9oY0jX7aTg-39" style="edgeStyle=orthogonalEdgeStyle;shape=connector;curved=0;rounded=1;orthogonalLoop=1;jettySize=auto;html=1;entryX=0;entryY=0.5;entryDx=0;entryDy=0;strokeColor=default;align=center;verticalAlign=middle;fontFamily=Helvetica;fontSize=11;fontColor=default;labelBackgroundColor=default;endArrow=classic;" edge="1" parent="1" source="Fa7wodahPX9oY0jX7aTg-11" target="Fa7wodahPX9oY0jX7aTg-20">
          <mxGeometry relative="1" as="geometry" />
        </mxCell>
        <mxCell id="Fa7wodahPX9oY0jX7aTg-11" value="$$f_\theta$$&lt;div&gt;Text Features&lt;/div&gt;" style="text;html=1;align=center;verticalAlign=middle;whiteSpace=wrap;rounded=0;fontFamily=Helvetica;fontSize=11;fontColor=default;labelBackgroundColor=none;fillColor=none;opacity=0;shadow=0;" vertex="1" parent="1">
          <mxGeometry x="430" y="205" width="50" height="30" as="geometry" />
        </mxCell>
        <mxCell id="Fa7wodahPX9oY0jX7aTg-37" style="edgeStyle=orthogonalEdgeStyle;shape=connector;curved=0;rounded=1;orthogonalLoop=1;jettySize=auto;html=1;entryX=0;entryY=0.5;entryDx=0;entryDy=0;strokeColor=default;align=center;verticalAlign=middle;fontFamily=Helvetica;fontSize=11;fontColor=default;labelBackgroundColor=default;endArrow=classic;" edge="1" parent="1" source="Fa7wodahPX9oY0jX7aTg-13" target="Fa7wodahPX9oY0jX7aTg-21">
          <mxGeometry relative="1" as="geometry" />
        </mxCell>
        <mxCell id="Fa7wodahPX9oY0jX7aTg-13" value="$$f_\phi$$ Audio Features" style="text;html=1;align=center;verticalAlign=middle;whiteSpace=wrap;rounded=0;fontFamily=Helvetica;fontSize=11;fontColor=default;labelBackgroundColor=none;fillColor=none;opacity=0;shadow=0;" vertex="1" parent="1">
          <mxGeometry x="430" y="270" width="50" height="60" as="geometry" />
        </mxCell>
        <mxCell id="Fa7wodahPX9oY0jX7aTg-17" value="" style="shape=mxgraph.signs.nature.snowflake;html=1;pointerEvents=1;fillColor=#000000;strokeColor=none;verticalLabelPosition=bottom;verticalAlign=top;align=center;fontFamily=Helvetica;fontSize=11;fontColor=default;labelBackgroundColor=default;opacity=50;" vertex="1" parent="1">
          <mxGeometry x="385" y="225" width="15" height="15" as="geometry" />
        </mxCell>
        <mxCell id="Fa7wodahPX9oY0jX7aTg-18" value="" style="shape=mxgraph.signs.nature.snowflake;html=1;pointerEvents=1;fillColor=#000000;strokeColor=none;verticalLabelPosition=bottom;verticalAlign=top;align=center;fontFamily=Helvetica;fontSize=11;fontColor=default;labelBackgroundColor=default;opacity=50;" vertex="1" parent="1">
          <mxGeometry x="385" y="305" width="15" height="15" as="geometry" />
        </mxCell>
        <mxCell id="Fa7wodahPX9oY0jX7aTg-19" value="" style="shape=mxgraph.signs.nature.snowflake;html=1;pointerEvents=1;fillColor=#000000;strokeColor=none;verticalLabelPosition=bottom;verticalAlign=top;align=center;fontFamily=Helvetica;fontSize=11;fontColor=default;labelBackgroundColor=default;opacity=50;" vertex="1" parent="1">
          <mxGeometry x="245" y="225" width="15" height="15" as="geometry" />
        </mxCell>
        <mxCell id="Fa7wodahPX9oY0jX7aTg-28" style="edgeStyle=orthogonalEdgeStyle;shape=connector;curved=0;rounded=1;orthogonalLoop=1;jettySize=auto;html=1;strokeColor=default;align=center;verticalAlign=middle;fontFamily=Helvetica;fontSize=11;fontColor=default;labelBackgroundColor=default;endArrow=classic;" edge="1" parent="1" source="Fa7wodahPX9oY0jX7aTg-20">
          <mxGeometry relative="1" as="geometry">
            <mxPoint x="550" y="219.99999999999994" as="targetPoint" />
          </mxGeometry>
        </mxCell>
        <mxCell id="Fa7wodahPX9oY0jX7aTg-20" value="Text Head" style="rounded=1;whiteSpace=wrap;html=1;fontFamily=Helvetica;fontSize=11;labelBackgroundColor=none;fillColor=#e1d5e7;strokeColor=#9673a6;" vertex="1" parent="1">
          <mxGeometry x="500" y="195" width="30" height="50" as="geometry" />
        </mxCell>
        <mxCell id="Fa7wodahPX9oY0jX7aTg-29" style="edgeStyle=orthogonalEdgeStyle;shape=connector;curved=0;rounded=1;orthogonalLoop=1;jettySize=auto;html=1;strokeColor=default;align=center;verticalAlign=middle;fontFamily=Helvetica;fontSize=11;fontColor=default;labelBackgroundColor=default;endArrow=classic;" edge="1" parent="1" source="Fa7wodahPX9oY0jX7aTg-21">
          <mxGeometry relative="1" as="geometry">
            <mxPoint x="550" y="300" as="targetPoint" />
          </mxGeometry>
        </mxCell>
        <mxCell id="Fa7wodahPX9oY0jX7aTg-21" value="Audio&lt;div&gt;Head&lt;/div&gt;" style="rounded=1;whiteSpace=wrap;html=1;fontFamily=Helvetica;fontSize=11;labelBackgroundColor=none;fillColor=#e1d5e7;strokeColor=#9673a6;" vertex="1" parent="1">
          <mxGeometry x="500" y="275" width="30" height="50" as="geometry" />
        </mxCell>
        <mxCell id="Fa7wodahPX9oY0jX7aTg-22" value="$$\hat{y}$$ Prediction" style="text;html=1;align=center;verticalAlign=middle;whiteSpace=wrap;rounded=0;fontFamily=Helvetica;fontSize=11;fontColor=default;labelBackgroundColor=none;fillColor=none;opacity=0;shadow=0;" vertex="1" parent="1">
          <mxGeometry x="670" y="245" width="50" height="30" as="geometry" />
        </mxCell>
        <mxCell id="Fa7wodahPX9oY0jX7aTg-30" value="$$p(\hat{y}|f_\phi)$$" style="text;html=1;align=center;verticalAlign=middle;whiteSpace=wrap;rounded=0;fontFamily=Helvetica;fontSize=11;fontColor=default;labelBackgroundColor=none;fillColor=none;opacity=0;shadow=0;" vertex="1" parent="1">
          <mxGeometry x="550" y="285" width="50" height="30" as="geometry" />
        </mxCell>
        <mxCell id="Fa7wodahPX9oY0jX7aTg-32" value="$$p(\hat{y}|f_\theta)$$" style="text;html=1;align=center;verticalAlign=middle;whiteSpace=wrap;rounded=0;fontFamily=Helvetica;fontSize=11;fontColor=default;labelBackgroundColor=none;fillColor=none;opacity=0;shadow=0;" vertex="1" parent="1">
          <mxGeometry x="550" y="205" width="50" height="30" as="geometry" />
        </mxCell>
        <mxCell id="Fa7wodahPX9oY0jX7aTg-36" style="edgeStyle=orthogonalEdgeStyle;shape=connector;curved=0;rounded=1;orthogonalLoop=1;jettySize=auto;html=1;exitX=1;exitY=0.5;exitDx=0;exitDy=0;exitPerimeter=0;entryX=0;entryY=0.5;entryDx=0;entryDy=0;strokeColor=default;align=center;verticalAlign=middle;fontFamily=Helvetica;fontSize=11;fontColor=default;labelBackgroundColor=default;endArrow=classic;" edge="1" parent="1" source="Fa7wodahPX9oY0jX7aTg-33" target="Fa7wodahPX9oY0jX7aTg-22">
          <mxGeometry relative="1" as="geometry" />
        </mxCell>
        <mxCell id="Fa7wodahPX9oY0jX7aTg-33" value="" style="verticalLabelPosition=bottom;verticalAlign=top;html=1;shape=mxgraph.flowchart.or;fontFamily=Helvetica;fontSize=11;fontColor=default;labelBackgroundColor=default;" vertex="1" parent="1">
          <mxGeometry x="630" y="252.5" width="15" height="15" as="geometry" />
        </mxCell>
        <mxCell id="Fa7wodahPX9oY0jX7aTg-34" style="edgeStyle=orthogonalEdgeStyle;shape=connector;curved=0;rounded=1;orthogonalLoop=1;jettySize=auto;html=1;entryX=0.5;entryY=1;entryDx=0;entryDy=0;entryPerimeter=0;strokeColor=default;align=center;verticalAlign=middle;fontFamily=Helvetica;fontSize=11;fontColor=default;labelBackgroundColor=default;endArrow=classic;" edge="1" parent="1" source="Fa7wodahPX9oY0jX7aTg-30" target="Fa7wodahPX9oY0jX7aTg-33">
          <mxGeometry relative="1" as="geometry" />
        </mxCell>
        <mxCell id="Fa7wodahPX9oY0jX7aTg-35" style="edgeStyle=orthogonalEdgeStyle;shape=connector;curved=0;rounded=1;orthogonalLoop=1;jettySize=auto;html=1;entryX=0.5;entryY=0;entryDx=0;entryDy=0;entryPerimeter=0;strokeColor=default;align=center;verticalAlign=middle;fontFamily=Helvetica;fontSize=11;fontColor=default;labelBackgroundColor=default;endArrow=classic;" edge="1" parent="1" source="Fa7wodahPX9oY0jX7aTg-32" target="Fa7wodahPX9oY0jX7aTg-33">
          <mxGeometry relative="1" as="geometry" />
        </mxCell>
      </root>
    </mxGraphModel>
  </diagram>
  <diagram id="2RI4gzyicLxUe5hiLmn_" name="overview">
    <mxGraphModel dx="574" dy="335" grid="1" gridSize="10" guides="1" tooltips="1" connect="1" arrows="1" fold="1" page="1" pageScale="1" pageWidth="850" pageHeight="1100" math="1" shadow="0">
      <root>
        <mxCell id="0" />
        <mxCell id="1" parent="0" />
        <mxCell id="Aqbx8FXfRSqF5MCxFeAb-16" value="" style="rounded=1;whiteSpace=wrap;html=1;fontFamily=Helvetica;fontSize=11;fontColor=default;labelBackgroundColor=default;fillColor=none;dashed=1;dashPattern=8 8;" vertex="1" parent="1">
          <mxGeometry x="150" y="267.5" width="320" height="142.5" as="geometry" />
        </mxCell>
        <mxCell id="Aqbx8FXfRSqF5MCxFeAb-17" style="edgeStyle=orthogonalEdgeStyle;shape=connector;curved=0;rounded=1;orthogonalLoop=1;jettySize=auto;html=1;exitX=1;exitY=0.5;exitDx=0;exitDy=0;entryX=0;entryY=0.5;entryDx=0;entryDy=0;strokeColor=default;align=center;verticalAlign=middle;fontFamily=Helvetica;fontSize=11;fontColor=default;labelBackgroundColor=default;endArrow=classic;" edge="1" parent="1" source="uOOk_8QC0o-31qwOpP6n-5" target="Aqbx8FXfRSqF5MCxFeAb-2">
          <mxGeometry relative="1" as="geometry" />
        </mxCell>
        <mxCell id="Aqbx8FXfRSqF5MCxFeAb-18" style="edgeStyle=orthogonalEdgeStyle;shape=connector;curved=0;rounded=1;orthogonalLoop=1;jettySize=auto;html=1;exitX=1;exitY=0.5;exitDx=0;exitDy=0;entryX=0;entryY=0.5;entryDx=0;entryDy=0;strokeColor=default;align=center;verticalAlign=middle;fontFamily=Helvetica;fontSize=11;fontColor=default;labelBackgroundColor=default;endArrow=classic;" edge="1" parent="1" source="uOOk_8QC0o-31qwOpP6n-5" target="uOOk_8QC0o-31qwOpP6n-8">
          <mxGeometry relative="1" as="geometry">
            <Array as="points">
              <mxPoint x="166" y="340" />
              <mxPoint x="166" y="378" />
            </Array>
          </mxGeometry>
        </mxCell>
        <mxCell id="uOOk_8QC0o-31qwOpP6n-5" value="&#xa;" style="shape=image;verticalLabelPosition=bottom;labelBackgroundColor=default;verticalAlign=top;aspect=fixed;imageAspect=0;image=data:image/png,iVBORw0KGgoAAAANSUhEUgAAAngAAAGLCAYAAABUee8QAAAAAXNSR0IArs4c6QAAIABJREFUeF7snQlcVWX+/+++sohbpVlampqOZlnZlKXmNL8pcckVREFRkFXArVTEXXFhVQRcEREERcvKtJm0NHNBTVObRq1pzMzcWO7l7uf8+d65D/8Tw+YFNa+f+3rx4nK5Z3nez3PO8znf7RGL8AIBEAABEAABEAABEHApAmKXag0aAwIgAAIgAAIgAAIgIILAwyAAARAAARAAARAAARcjAIHnYh2K5oAACIAACIAACIAABB7GAAiAAAiAAAiAAAi4GAEIPBfrUDQHBEAABEAABEAABCDwMAZAAARAAARAAARAwMUIQOC5WIeiOSAAAiAAAiAAAiAAgYcxAAIgAAIgAAIgAAIuRgACz8U6FM0BARAAARAAARAAAQg8jAEQAAEQAAEQAAEQcDECEHgu1qFoDgiAAAiAAAiAAAhA4GEMgAAIgAAIgAAIgICLEYDAc7EORXNAAARAAARAAARAAAIPYwAEQAAEQAAEQAAEXIwABJ6LdSiaAwIgAAIgAAIgAAIQeBgDIAACIAACIAACIOBiBCDwXKxD0RwQAAEQAAEQAAEQgMDDGAABEAABEAABEAABFyMAgediHYrmgAAIgAAIgAAIgAAEHsYACIAACIAACIAACLgYAQg8F+tQNAcEQAAEQAAEQAAEIPAwBkAABEAABEAABEDAxQhA4LlYh6I5IAACIAACIAACIACBhzEAAiAAAiAAAiAAAi5GAALPxToUzQEBEAABEAABEAABCDyMARAAARAAARAAARBwMQIQeC7WoWgOCIAACIAACIAACEDgYQyAAAiAAAiAAAiAgIsRgMBzsQ5Fc0AABEAABEAABEAAAg9jAARAAARAAARAAARcjAAEnot1KJoDAiAAAiAAAiAAAhB4GAMgAAIgAAIgAAIg4GIEIPBcrEPRHBAAARAAARAAARCAwMMYAAEQAAEQAAEQAAEXIwCB52IdiuaAAAiAAAiAAAiAAAQexgAIgAAIgAAIgAAIuBgBCDwX61A0BwRAAARAAARAAAQg8DAGQAAEQAAEQAAEQMDFCEDguViHojkgAAIgAAIgAAIgAIGHMQACIAACIAACIAACLkYAAs/FOhTNAQEQAAEQAAEQAAEIPIwBEAABEAABEAABEHAxAhB4LtahaA4IgAAIgAAIgAAIQOBhDIAACIAACIAACICAixGAwHOxDkVzQAAEQAAEQAAEQAACD2MABEAABEAABEAABFyMAASei3UomgMCIAACIAACIAACEHgYAyAAAiAAAiAAAiDgYgQg8FysQ9EcEAABEAABEAABEIDAwxgAARAAARAAARAAARcjAIHnYh2K5oAACIAACIAACIAABB7GAAiAAAiAAAiAAAi4GAEIPBfrUDQHBEAABEAABEAABCDwMAZAAARAAARAAARAwMUIQOC5WIeiOSAAAiAAAiAAAiAAgYcxAAIgAAIgAAIgAAIuRgACz8U6FM0BARAAARAAARAAAQg8jAEQAAEQAAEQAAEQcDECEHgu1qFoDgiAAAiAAAiAAAhA4GEMgAAIgAAIgAAIgICLEYDAc7EORXNAAARAAARAAARAAAIPYwAEQAAEQAAEQAAEXIwABJ6LdSiaAwIgAAIgAAIgAAIQeBgDIAACIAACIAACIOBiBCDwXKxD0RwQAAEQAAEQAAEQgMDDGAABEAABEAABEAABFyMAgediHYrmgAAIgAAIgAAIgAAEHsYACIAACIAACIAACLgYAQg8F+tQNAcEQAAEQAAEQAAEIPAwBkAABEAABEAABEDAxQhA4LlYh6I5IAACIAACIAACIACBhzEAAiAAAiAAAiAAAi5GAALPxToUzQEBEAABEAABEAABCDyMARAAARAAARAAARBwMQIQeC7WoWgOCIAACIAACIAACEDgYQyAAAiAAAiAAAiAgIsRgMBzsQ5Fc0AABEAABEAABEAAAg9jAARAAARAAARAAARcjAAEnot1KJoDAiAAAiAAAiAAAhB4GAMgAAIgAAIgAAIg4GIEIPBcrEPRHBAAARAAARAAARCAwMMYAAEQAAEQAAEQAAEXIwCB52IdiuaAAAiAAAiAAAiAAAQexgAIgAAIgAAIgAAIuBgBCDwX61A0BwRAAARAAARAAAQg8DAGQAAEQAAEQAAEQMDFCEDguViHojkgAAIgAAIgAAIgAIGHMQACIAACIAACIAACLkYAAs/FOhTNAQEQAAEQAAEQAAEIPIwBEAABEAABEAABEHAxAhB4LtahaA4IgAAIgAAIgAAIQOBhDIAACIAACIAACICAixGAwHOxDkVzQAAEQAAEQAAEQAACD2MABEAABEAABEAABFyMAASei3UomgMCIAACIAACIAACEHgYAyAAAiAAAiAAAiDgYgQg8FysQ9EcEAABEAABEAABEIDAwxgAARAAARAAARAAARcjAIHnYh2K5oAACIAACIAACIAABB7GAAiAAAiAAAiAAAi4GAEIPBfrUDQHBEAABEAABEAABCDwMAZAAARAAARAAARAwMUIQOC5WIeiOSAAAiAAAiAAAiAAgYcxAAIgAAIgAAIgAAIuRgACz8U6FM0BARAAARAAARAAAQg8jAEQAAEQAAEQAAEQcDECEHgu1qFoDgiAAAiAAAiAAAhA4GEMgAAIgAAIgAAIgICLEYDAc7EORXNAAARAAARAAARAAAIPYwAEQAAEQAAEQAAEXIwABJ6LdSiaAwIgAAIgAAIgAAIQeBgDIAACIAACIAACIOBiBCDwXKxD0RwQAAEQAAEQAAEQgMDDGAABEAABEAABEAABFyMAgediHYrmgAAIgAAIgAAIgAAEHsYACIAACIAACIAACLgYAQg8F+tQNAcEQAAEQAAEQAAEIPAwBkAABEAABEAABEDAxQhA4LlYh6I5IAACIAACIAACIACBhzEAAiAAAiAAAiAAAi5GAALPxToUzQEBEAABEAABEAABCDyMARAAARAAARAAARBwMQIQeC7WoWgOCIAACIAACIAACEDgYQyAAAiAAAiAAAiAgIsRgMBzsQ5Fc0AABEAABEAABEAAAg9jAARAAARcjADP8/Z7+8CBA9VyudxTJBJ1sVqtjyqVykteXl6nMzMzy12syWgOCIBAFQIQeBgSIAACIOBCBOLi4iRt27ZV7N27t9f3338fJZPJ/lJeXq5Rq9Uik8kk0mq1l6xW6+omTZps+Oyzz0rFYjHvQs1HU0AABBwEIPAwFEAABEDAhQjk5+dLP/nkk7+eP38+yWAwtJdIJGKpVCriOE4kkUjsIq9Jkyb/6tWrV5Sbm9s/5s2bZ3ah5qMpIAACEHgYAyAAAiDgegSio6P/dOTIkZSSkpI3lEqlWCwW28Wd2WwWKZVKe4NNJpPZy8tr7UsvvbQkISHhF1jxXG8coEUgAAsexgAIgAAIuAiBoqIi+dKlSyf+8MMP8SKRyM1qtYpkMpm9dSTw5HK5SKFQ2N+LxeKzarU68tChQ1+IxWLORRCgGSAAArDgYQyAAAiAgGsR+Pvf/95sxowZSw0GQ6BCobBb72w2m4hctPQiwUcv+lsul1uNRmPQmTNnNovFYptrkUBrQAAEYMHDGAABEAABFyFw5MiRx8PDw9M4jvMWxtyR0FOpVHZXLYk8+pvneRJ5M/Py8hI6dOhgchEEaAYIgAAseBgDIAACIOBaBIqKip6IiorKNBqNfzUajZWWOxJ25J5lL3pPblqRSDSnsLBwebt27YyuRQKtAQEQgAUPYwAEQAAEXITAsWPH2gQHB6dbrda3yQ1LVjqKubNYLHbrHblr6TclWzh+T9u6dWsqLHguMgDQDBAQEIDAw3AAARAAARchcPjw4dbR0dGrzGbzYGoSiTgSeiyDlsqk0HtWNsVqtU7Ny8tL7dq1K0qluMgYQDNAgBGAwMNYAAEQaFQCPM/Lzp07p5LL5SqpVCqhOmwWi8V2/fp102effWaYN2/efyP98Wp0AhSDFxkZmcbzvDe5aEnQ0Yti7qq+yLonk8nez8vLS4QFr9G7AjsEgftOAALvvncBTgAEXIfAqVOnmsTHx//1+++/f0OlUr0oEom8bDabTKlU3tDr9d+azeZP+/Tpc3DVqlW/uE6r/zgtIQve5MmT11CSBVnq6hJ4CoUCLto/TvfhTECgUQlA4DUqTuwMBB5eAgkJCU3//e9/jz948GCMyWR6jGK/6EXuQEd5Dl4qlRbzPJ8wf/78BG9vb6yH2sjD5eTJk62CgoJW22y2wRRvR5a7mqx3IpGIliiLXL9+fUbPnj0tjXwq2B0IgMB9JgCBd587AIcHAVcgwPO8pFevXv9XWlqaplQqnyRxQZmarNCuwWAQeXl5iW7dukUi70BcXFz4iBEjzrtC2/9IbTh//vxjAQEBKSaTaRg7r1oEns1qtU5atWrVpr59+8Jt/kfqSJwLCDQCAQi8RoCIXYDAw07g7Nmzbv7+/nM5jotWKBSSsrIye6YmWe9YuQ5aUcEh+H5asmRJ0FtvvbXvYefW2O0XCrzqhB07HsXfiUQiG8/z40+fPp2DQseN3RPYHwjcfwIQePe/D3AGIPDAE/jnP//ZytfXd7fRaHyehByz3pGQYGU5KCaM3LY8z+vnzp07fuDAgfkPfMP/YA0oKip6LCgoKNVmsw1lmbJCS55D2NnLp/A8T8uTjYPA+4N1Ik4HBBqJAAReI4HEbkDgYSZw9uzZJ0JDQ/frdLqnyD1Lwf0kIkhksFUTHIV1aUUF84ABA8bHxcXlPMzM7kbbhQKvqgWP9QMd1yHwyII34cyZM9mw4N2N3sA+QeD+EoDAu7/8cXQQuCcEeJ6ndUntfrm78fr222/bBAYGHtDr9U9ptVqRXq+vXDmBhJ1Go7G7asmCJ5FILGKxeNzx48ch8Bq5M8iSOmbMmBSLxTKULVVWiwUPAq+R+WN3IPBHIgCB90fqDZwLCNwlAiTwIiMjn1Kr1V4ikahMp9NdSUtL0zXW4ciCFxgYuN9sNj/F3IC0b1amg8SGYOF7i1KpHHfkyJFGFXiU6LFnzx7522+//dCuq0pZtMHBwalWq/Vdxry6PmYxeBzHwYLXWBcB9gMCfzACEHh/sA7B6YBAYxIgYbdw4cJOJ0+enPbjjz/+RSKRSHmet0okkpsqlWpzq1at0vv3728NDg5uUJkMsuBNmDDhQFWBx0p1kNig2Dz6W6VSWSwWy7hvvvmm0QReaGio27fffvuCm5tbL7VaXXb16tXPDx8+/INYLHapFRqoP2l81GSNdVjwUnU63btqtdoe/wiB15hXFPYFAg8OAQi8B6evcKYgcMcENm3a9MKyZcsyzGbzCx4eHpU10Sib1WQycRqN5uBbb701YcmSJT82JA6rJoHH4sCYwKM1UdVqtaW4uHjc999/32CBR7X3tm/f/rTJZFpbXl7enUSNQ0jypaWlu55//vlZeXl5/7yb7uk77pQ73KBPnz6y6dOne+l0unZz5859VKFQGCQSya0lS5ZcVigUt4QlTg4dOtRq6tSpqTzPv0su8ZoyaWHBu8NOwNdB4AEkAIH3AHYaThkE6kPgwoULypSUlClff/31LIlEoqEJnwQWZbiSCKLJ32g0Wps1a7Zn2rRpU7y9vS/UZ7/VfacmgUdCggX3s3VQFQqFRa1Wjz98+PAWZ49H2+3fv1+2e/fu/9uzZ88yhULRiYIMmVuShN6tW7dsWq32q5dffjkqPT39VEOOdb+2PXTokPv8+fN7XLt2zV8mk70jEolaOgpH3+R5/pPOnTt/0LNnzwMxMTG36BzJgufn55dqNBrfValUrMD0/5w+BN796lEcFwTuHQEIvHvHGkcCgXtK4OOPP34mNjY2zWKxvMmyWknckchzrENK7lJReXn57b59+8YkJiY6nU1Zk8CjBjORR+8dJVMs/fr1Gx8fH98ggTd9+vTO+/btSxKJRG+KxWIptY0KKtNvk8kk8vT0JIFjttlsuUuWLJn51ltvPVDLo509e1YRHx8/8uTJkzEajeZPHMdJqe8oieXmzZvUd1xFLONPXbp0WRUeHr6+Z8+eJZRFGxISYi+TQgyIRXUvCLx7einiYCBwXwhA4N0X7DgoCNxdAjzPSwMDA4d+++236TabzYuEAVl+SOjRexYPR38bDAbO3d19bXZ29qzOnTvfdObMHEkWFIPXTphkwWqxkRWP3ML0N8XgTZkyZfywYcOcFng//vijat68eZP++c9/LiovL9cwKyG5oXU6nV1I0g/F/Hl6et5o1apVyI4dOwrJyOdM++71Nvn5+dLc3Ny/Xb58eZnJZHqGVnxjYo2EGzF2d3cnCyyvUCh+bt26dfDOnTv3fvfdd49QFq3Vah1GhaZZaZqq5y8QeBPPnDmzuSHu+XvNho5HfIYPH85R4lDFn8/yPN/carWKeZ7/VSqV/mv16tWXHmS3/P1gimO6HgEIPNfrU7QIBOzuy/Dw8HEymSzDZrOJSdAJxR1zl7JAfJ7nP9i6dWtYx44drziDryaBx6x2JMCYyJTL5Zb58+ePHzBggNMC7+jRo82io6OTb9265evm5iYm8cgskyQimQuaxeNVCJjYnTt3JrRp08YgbB8lLVy7dk1jMpkUO3fuVGzfvt188ODBkvstBL/88svHpk2blqLX6991d3eXMPc6tZMseMSzpKTE/l4mk5HIW75mzZr5SqXSc9y4catLS0sHk8CrI8mCxO7EpKSkzQ/aUmVxcXGyL774IrCkpGS+2WxWS6VSieMBhtPpdPrHH388f8SIEUuDg4OvOjOeq24TFxcnmTt3Lv/999+7jR07ltZZdlcqlQqtVns9KyvrRpMmTcoeNJHcGFywjz82AQi8P3b/4OxAwCkCJPCmTJkyjuf5TBIHJOToRRYtEj30GQkAsgaR2NNoNB9u3rw5tIEC7wuz2dxWaMGj97R/oQWP6uDNmTNn/KBBg5wWeCdPnmwRERGRTtmiNLEzqyR7T20lMUQuaKrJ5+7uvnDdunVLu3fvrqf/ZWRkyB999FFVYmLiC0aj0Y/n+RdtNpuG47izSqUyq0uXLl+vXbv2t/tlBcrKynomPT290GQydWFxk6xwNC0DR8KO2sr6T6VSrf3444+nXr582T0kJGS1xWIZxNzV1Q0gRx9xPM8HJScnZz1IAo9Eeffu3Z9Rq9V5RqOxOyUVO0IN7GONxnd5eTmnUqk2REREzBw/fvx1py4iwUYUzxoTE9P+p59+ilKr1YNNJlNz+rdWq7XZbLaTZrM5eeHChfvefvvtBh+roeeK7UGAEYDAw1gAARck4BB44zmOyxDGwAktajQZMjemRqPZXSFoQrt37/6zMzjIghcQEPAlx3FPMqsRy+AkoUUFjklcOoSFJTU1dfzrr7/utMC7ePFiS39//0ydTjeotvMltyadj8Viif3kk09WkgWPBEJmZqbHrl27xv7yyy9TpFKp/Zzp/BxLrN1wc3PLeuGFF9akpKRQdvE9d+u+9tpr5JbdptPpnhMKZmor48o+p3P39PTMzcnJCbt9+7YmIiIirbS0dGA91qLlxGLxpMTExI0PksBLSUnx2LJly2yTyRTKcZyWtZN+C39EIlG5VCoNOnbsWF5DrGtFRUXylJSUt8+fPx9RXl7ejyzG5PpmK7aQ0JZKpbf79esXN2nSpLXt2rUzOnMNYRsQaGwCEHiNTRT7A4E/AIGgoCD5iRMnJthsttWOVSwqz4plmrLEC5qoWrZs+VFCQkJIQwTeuHHjDlqt1ieEbkFhUgdbWUGr1VpCQ0PHjRkzxukyKd9+++0jQUFB68vLyymztMYXWSrJ2iWXyxdkZmbGkwWPCiL7+vr6njt3Ll4mk7Wi8yIRSoKJLJ1kMTMajcVNmzZNnzlz5kpvb+8b97pL+/bt29FoNOYbDIZudGyhyKsq8Oh/bm5uBbm5ucEk8MLCwlbr9fpahS+z4HEcF5qSkrL+QRJ4ISEh3fbv379Gq9X+mfpKKGSFYo+4qVSq7Tt37gx49NFH7ZbbO30NHz5cqlAoOl64cGGlSCTqbzAYZCwWkq4bNqbpvZeX15cbNmwY36FDh0t3ehx8HwTuBgEIvLtBFfsEgftM4JNPPlHOnTt3stlsXlqbwCNh4+bmRq6+vV26dAnKzs7+jzOnfunSpSdGjx5td9HSpCe0LrH1aJnFUCqVWtq0aTOxsLCQgvudWj6NLHjjx49PLy0tHVLb+dISaaWlpSTwlmRnZy/u2rWr7qOPPnohNjZ2DcdxL5DYY1YfOm+avFl8olwu/3HBggXj//a3vx1whklDttm9e3eHhQsX5ptMpueEAk8oZoSiz83NbWdeXt6EK1euaGJiYtINBsM7VS1/wvNx/I+Xy+UzcnNzUzp06PDArP6xcuXKofn5+akmk+mxuhir1eqrL7/88gtJSUlOxeI5CoWPP3DgwMrr1697snADsuBRiAO9aHw73OHFzz777N9ycnKO1HVe+D8I3AsCEHj3gjKOcU8J0KR94sQJabNmzaRt27Y13w8X2z1tcDUHoyxTHx+fKUajcWFdLlqarJo1a7Y3KSkpqGfPnk4JvCtXrjwxfPjwL0wmU1uyZrAXixtjK1rQb6qDZ7FYaImszc5yunDhQouAgIA1er1+aG37YMeVSqXx2dnZC69fv26cMmWKn0QiSTGbze5M3JGwIw4slo8+l8vlVEcvdsuWLUlVkzOcPe/6bnf58uX2Q4cOzTebzT1qEnjsczpXjUazKzMzM7C8vFwbFRWVbjQa32Ztr+6YTPxVJLzMKigoSHiQ3Iq5ubm+FQWuU0wmUzO2FF414tX+kUajKXFzc3v2s88+c6pEzpEjRzymTZs27/r165NVKpWYxbCyOFY6Bp0DhSCYzWauIoPX9+mnn95eUFDw/y+C+nY6vgcCjUwAAq+RgWJ3948Axcrcvn27a0xMzLMeHh5e169fd9dqtRdiYmIuPP744+ceJDdUQynWV+DRhEVuSblcvnfJkiVBvXv3dlrgDR06tFLgMUsTs3iQcGIvjUZDy4dNOHr0aLaz7XQIvHTKMq1tH2SVIyuewWBYmpOTs6i0tNQWFhY2RSwWz/9vOJvYnqjA3G7M5cZcthSLV1BQENOmTRt7IeF79Tpx4kT7qKiofJ1O14PEGBNkVePqWBKLRqPZmZGRMUGn09kteEaj8Z36CDyxWDyLsosfJIFXUFAwevny5SkWi6VpbVZKh/gqadu2befCwkKnLHiObOaVer3eh0QdWe3IWkcPA+T6p/FCSTxUnofGjEajmdq1a9eUzMzMBi39d6/GGY7j2gQg8Fy7fx+a1uXn5z86c+bMd7Va7XiJREJuLSk1XqlUlshksu/d3d0zXnrppS3z5s1zqbVJa+pgnudVPXr0mCISiWq14FGMGhUEtlgsdgteAwXelyaTyZ6wIFyijIk8OleHG9Qu8IqKipwWeFevXm0xfPhwexZtbYOcZZoqFIrFGzduXEzf9fPzm2G1WmNJ2NK5lZeX2zMvWWkV+kwQQP9BTk5OUPv27X+7lxfTxYsX2/v7++eXl5fXKvDonBwWPKcEXoW7fNaOHTseKIGXl5c3OikpKaW4uLgpCa7akkk8PDxKJBJJpwMHDvzqTP8dO3aszcSJE5M4jrOvDELCjo7HsrXJckcPL/RD7zUaTexXX30VXyGcIfCcAY5tGpUABF6j4sTO7gcBsubMmDFj6qVLl8aLxWJy29hdKXQjpsnb09OT1+v1v1RM6HOLiorWOxv3dT/a5uwxyYI3evToKeXl5bUKPIfL1G7BS01NbZCLdtiwYV8ajcYnmVWJuYZZ0gX9Te/VajW5ze+JBY/GgMPaMi8tLW2ZXC4X+/r6zpBKpbGspAZZXug9/RZavWjCVqvVH2ZlZU28HwLPx8cn32q11irwWIFntVpduHbt2olkwYuKilpjNBoH1DZ2BBbBB86Ct2nTptHp6ekpNputqdAyXF17tVptiVwub5DAo3qLBoNhCHtwYRnXLCGHLMA0VhxW4Nnp6enLevbsCYHn7M0L2zUaAQi8RkOJHd0PArRiw8CBA0deunQpQy6XuzEXCluuihW95TiOF4vF+0JDQ0MmTpz44/0413t5TBJ4I0eOnGI2m2sVeDTRO1Z7aHAM3tChQ/9H4FGbhTGAdCxy0RqNxgmnT5922oJHon7cuHF1WvBoMqbJ12g0ztu0adMyOp/x48dPqxgfc0nQsRg8JvAcJS/sFhn6TK1W79i+fXvIY489dk/rm509e7Z9WFhYfmlpaZ0CzyGaC9etW1cp8AwGwwCWJV3duHuQY/AKCwtHz58/P0UkEjWtrW30P5VKRTF4Hf/xj39cc+b6O3z4cOspU6YklpeXD2dimiy9ND5oLNN4IaHHVhdxc3ObeejQoeVisdjqzPGwDQg0JgEIvMakiX3dcwIUZ/e3v/3tc5FI1JMmOrLW0E2XhB5Z79jyXI41UC+Gh4eHjx07du89P9F7fEASeMOHD59itVoXskNXF8fFxJe7u/u+xMTEiQ1JsiCBRy5aoeWOTYosg9YhqMwKhSLw6NGjTtfBq28MngD7ki1btiymGLyQkJCpFcF388i7WVNsG9tOpVIVZmdnT+rQocM9F3jBwcGVLtrahg8xVSqVO9atWxdEFrzo6Og1JPAY+9pE0IPqol25cqU9Bq8mLqxf1Wp1iVarbZDAi4qKSjCbzSPYwwr9ZuJZGI5AnyuVyhlHjx5NgMC7xzc8HK5aAhB4GBh3lYCjRIe9FIbwfWMddPfu3c1nzpx5RSKRKFjGJt102RqozF3oEHi3wsLCJvv7+zstLBrrvO/2fiDwfk+4IrN6/vr16+Pp08DAwBkVmdVzhBN2TXFcKpVqR3Z2dsh9EngFer3eXiblDgVemsFg8IbAE5F1rcTDw+OZffv2ORVDeeTIkccnT56cZDKZ7NnaTDgygSe0TtN7pVI5/ejRo4kQeHWNWvz/XhCAwLsXlB/iYwQFBWnatGnzyG+//dbi1q2uY27PAAAgAElEQVRbhh49elydMmXKzcaKg3vzzTcfuXr16q9Nmza1r81JN15WOoHFUzHrkVKp1IWFhUX7+/uvc/UucULg7U1MTGxQDN4f3II3b926dXYXLQTe/xcqCoViZn5+fuKDlEVLSRb1teCpVKriilU+OjamwGMPjeweIiw8rVQqpx05ciQJAs/V77APRvsg8B6MfnogzzIvL69zenp6JMURyWQyrcFgsEgkklsvvvhibklJSfazzz7LzZs3r0GxKr17925RVlZ2jayDdOOleBhyzTqepu2B8wKBpw8NDY0JCAjIfCCB3sFJPyQCr846eAJkc9etW7ec/p4wYcL0CmNM3B/Zgnf+/PkOEydOzK+vBY9WbFi7dm2ww0VbbwueWCyeSXXwHqRCx380gSe05kHg3cFNCl+96wQg8O464ofzADk5OV7r1q1bdPXq1XFubm5Ki8Uiprg4vZ5WiuJ1bdu23Tlq1KhQlUplHDFihNNFQd98881mN27cuG42m8WUWOEoOGoPnqdg6KoCLzw8PHrs2LFrXb1XIPB+38MVFuO4tWvXrrhTgadWq7dv3rw59F67aOsr8Jg1qUoMXr0Fns1mm0l18CDwqr8jkIs2KioqyWg0DqV7ClulhYk6lqTDXLcQeK5+Z32w2geB92D11wNxtmfPnnULCQmZVlpaOl1FaWwlJfakB1ZE1rHEj95isaSGh4cvDgwMLHO2YSTwfvvtt99UKpWExBwlWZDII3FHBUmrJFnowsPDYx4igRdjtVoXMbZ1JFl8unLlyqCXXnrpsjN9QStZ3KGLtjHKpNTbgicUeJRFK5FIyIJXZ5LF/RZ4Op2uMgavujjBhgo8nudnUh08CDznBB5tJcxWhsBz5u6Bbe4WAQi8u0X2Id5vYmLiKwUFBdv0en0bEl0kuEjckeiiuDhBbNzFV155JSotLe0TZ2PyFi9e3KyijMU1q9UqZYVq2SLgLNFC6KJ9yCx491rg2VeyqE8WrVwun3js2LG7vlRZdS7aB1XgUVtqWsmCWfBKS0vVU6dOTdPr9QPrUyaF47j3CgsLkx4kgZefn+/rWMmiWU23WWEWrZeXV4c9e/Y4lQVdlwVPKPCQZPEQT3p/0KZD4P1BO+ZBPS2qS/fKK69M1Ov1aVRUliYZsqSR+GJLLpErlepIeXh40IoGCydPnhw/YsQIp1aYqFiTsummTZt+k0gkUmHwM+2fKs+zemaOLFr9wyLwLly4oPT19Y2xWCz21RvoVZsFz8PDY8+KFSuCG2jBO2AymdrVV+DRUmXOCnsqk+Lv77+a6pPV81qxx+CZzWb+Tsqk/JEseLUJPIrBy8jIsJdJmTJlCnEZVB+BJ5VKZ2zbti25qsCj9Zzj4+Mfl8lkncvKyqRqtbp0xowZXznbX/Xso3p97Q4FXmmLFi2e3r1794167bzKl0jgRUdHJxoMhmF1uWgdMcDvff311yuRZOEMbWzT2AQg8Bqb6EO+P57n5b169VpWVlYWRZY74YsJDPabNIdcLl/11FNPxRYUFJQ4g+7TTz9tOmPGjGsqlUpWWloqcnNzs1sL6WZMwpKdg6PArv7RRx+N2bVrl8snWZDAGzVqVLTFYllClkwmroX1u5iFk34rFIpPOnfuPEmn0/3izELply5demLs2LH7y8rKnhIKC+oHZkFlVlylUmm+fft28HfffZflrGD4/vvvmwcGBq4uKyuz1ydjL2bhEi6VRu2z2WwLNm/eHK/X67ng4GAqdDyPrbBR27hTqVTbsrKywjt27OiUQHBmTNM2ly5d6uDv719QVlbWvTphV7XNLMmCLHgRERGrRSLRIPZwI8zyZPtiBa55np+Wl5eX0rVr18oHrOXLl2tPnDgx+fTp0yObNGniaTAYaJ6wNG/efKWPj8+WhoRUOMtDuN2HH37oM2PGjBS1Wt28pj5k95iKtWF1TZo0ecpZCx4VOp4+fXpiaWnpcLaEHT2ssnATdl3RGKOXVCp9/9ixYysg8Bqjp7GPhhKAwGsoQWxfVcQpevfuTSsMjGMV32tDJJPJ0ivWh505YMCA286gPHv2bFMfH5+rHMcpKLaPJjW66ZKwYzdfchOT1bBiMtM/9dRTMYWFhS4v8M6ePauYMGFCeHl5+QqpVGqPNWMWTvrNagWyyV+j0Xy0YMGCkL59+/7M+qGmuoX0uUMo2Osb0quoqOiJsLCwA2azuR3xpr6nF3PH0wTIEl5onU6NRjPx0KFDmxsi8AICAtKqWvCqE3gV8XY8x3ELqA4eWfCCg4OnVjCxFzqua8y5u7sXbNiwIexeJ1l88cUXHWbOnLldp9N1q0vg0f81Gs32zMzMYLPZrAoKClrNcdxgAW97M4UWXIfAo4Sn0E2bNq1/4YUX7NnssbGxT+3evTvearW+4+7uriouLhZptVp7P5pMJqNSqdw3fvz4mIiIiB+c7bu6mNf1/y1btviuXr06xWw2N6Pzqu4lSHoo7dixY4fs7Gyn6+DFxMQk6fX6oWwMVw39EF5XVDg6MzNzOZYqq6sX8f97QaDOG9y9OAkcw3UIOIRFul6vH8fq0VXXOoFVITEnJ2dO165ddc5QoDp4N27cuGyz2eS0PVnwKNGCWYvovUajoaWqSOSVxcTERPn4+Gxw5lgP0jZFRUXywMDA8TzPr5ZKpdKq2X/UFuof4kMvpVL5YW5ubmjHjh2vkIAbMWKEhAwSoaGh3LJly6SDBw9WbdiwgR8/frwhNzdX+sYbb1CJm0qrz+uvv96O47gvKO6S9kmCmmUY0iRMgo+Wc6JjSqVSs5ubW+DBgwedLjhNLlo/P790o9H4rrBfhDFqzKVWUdSYE4lE7xUUFKTIZDLxwIEDI8Vi8RKxWCypqcAx26dEItm1cePG4O7du9coEO5GAe+ePXt21Gq1O4qLi7vUJfBIYLi5uW3bunVryPXr11WTJk1Kttlsw4k78a7FgmelNYGTk5NzDhw4IGnfvn2zhISElRKJZLjFYpEJl3GjvmvevDmVIDLJ5fL1Q4YMmffkk0/ebEgGvLPXU2xsrN/evXtTjEajV033GCbwPD09b23duvWZxx9//KYzx/viiy/azJgxI9loNA4RCjwmnoXZtLR/uVwefuTIkXSxWOx0ZQBnzhPbgEC18yywgEBjEiCBN2nSpFU6nW4im2BqE3gKhSIxPj5+Tt++fZ0SeIsXL26RnZ39s1arVZCIIDctWe+Ye4q5Vei3UqksmzZtWvSIESPWN2ab/4j72r9/v2zatGljzWZzhlQqlVUn8Ni6q3T+KpVqV3Jyctjzzz//C/VhSkqK7IUXXhDl5eX1vX37dnepVPqI1Wq1yOXyax4eHkenTp169O233zaxtvfr1+9pk8m0X6fTtSFhwKwc9J5Z9NjaneSiLS8vDzx9+rTTAu/kyZMtJk2alGE2m4fQOVQXX8hWcuB5npNIJDMLCwuT6bsDBw6czPP8YqlUWqfA8/Dw2JmamjqpqsBLSUlpoVKp+n733XfNv/7665KhQ4cWP/nkk1+MGDHCqXFcdQx5e3t3unbt2naTyVSrwKM2OtYS3rZly5YQvV6vCggISDabzcNZLGQtAs9msVgCv/vuO+oHLjQ09P8OHz68SiaTPUXXDwt1oIcmCncgkUd1Jo1G4xWywI4dO/bzyMjIyjFwr66DqVOn+u3fvz/FarV61STQ2XjQarW3fH19nwkPD3dK4H322WdPzJ49m3gOpjHN7ivs3lbVMl5RWDnqyJEjq+GivVejAcepjQAseBgfjUqAxEFoaGimTqfzZ0+57ACC2LvKY8rl8sTly5c7LfCio6Obfvrpp78oFAoli4uhmz5LsKD3dFMm8UcWvNDQUKqD91AIvKioqLE8z2dIJBJZ1YmIOoAmLGZt4ziucNu2bRGdOnX6hQLsU1NT23388cf+v/3223CNRtO+pKRESi45T09PY0lJyffNmzfPfe6551YlJiYaaF9vvfVWu+Li4i94nm9DvHU6HSXR2IUXs+AJMqjNGo2mQWvRksALCQlZU3UJqarWLocA4iUSyaydO3cmCgWeTCYjK2WtL7VaXbh69epJzz//fGUW5vr16923bNmysqSk5B2VSuWh0+l0KpVK36RJk89ffvnl9X/605+KGmrZyszMfGbTpk2Fer2+ToFH15mnp2deTk5OaFlZmXLcuHEkSEZUdVdX46K1Wq1Wv/PnzxeMGzdOUVRUFK5QKBabzWY5PSSxuLKbN2/ahZ2jvBFZBG0VIn1mVlbW/yRn1MWzMf6/Zs2a0evXryeBV+datCKR6PbKlSs79O/f3ymBt3fv3jZxcXHJJpNpCLN4C1207OGCWYuVSmXUsWPHIPAao6OxjwYTgMBrMELsQEiABF5ISIhd4DFhJfx/VZHH83xyWlpa7GuvveZULbzDhw83DQgIuOLp6akiNywJOfqh2CESefRiVjyVSlU2a9as6CFDhri8wKNs5h49eoyx2WxryYJXk8CjiamsrEzUsmXLwnXr1tkF3sGDB5+ZPXv2kpKSkrckEolWp9OJyYrDSt6Ul5fzarX6llQqzW3atOnKTz/99N8ffvjhE4sWLTpQVlbWjmK2yC1OwoAlWLBkF/pbJpOZx40bNy44OHirs1cPCbyIiIjf1cGryYpns9koVnDWBx98wAReFFnwyF1b1/GrZtGuWbOmR1ZW1iyr1fo2z/NqGuNscheJROSyvvjYY49lzJ8/f1OvXr1K69p/Tf/38/PrePny5cLi4uJnq4pW4TbEk87B3d09j1zsZMEbO3ZsssViGV4fgSeRSEZ/880327du3eo5b968BW5ubmG0fxL+1N8s/o71Hwl3EnpqtTp1zZo173fv3l3vbBud3S47O3v0ihUrUiQSSdPqHhqZ6KLfHh4eN3Nzczs666IlC96cOXPIRTuYeBIXVhGAuYeFoQgqlWry119/nQYLnrO9i+0ak0CdN7jGPBj25foESOCFhYVl6HS6ALLYVDfpCinI5fKU1NTUWGcnwzNnzniNGTOGrE4qtnIFHZPEHYvDIwFDE5VUKn1oLHgk8Lp37+7H8/y6qgKP+LMkCzYZOixVEe7u7jeHDRsWZTAYlrLJnQlkEm00wdNkT5M/x3G8WCxevHLlyiUcx7UggafX659kBaZJCDBrB32f+sVh1TXHx8ePe+edd+ot8KrGuZHAmzx58pqysjL7IvDCSb2q244yCSom3Nm0YgN9z9vbO1oikSxiySe1XZUeHh67U1NTJ5CLNjs7u318fPwqjUbzVxpTZNViVh0mgByuzVKbzTbx3Llz2x3xf3d84b/66qsdrVZrodForFPgEVMPDw+7BY8JPKvVWlk+prYYPJvNNprO8+uvv24SFha22GKxBFNbKIaS9kt9Se1kLlvqU0e4Q1p6evoMZ2Nn7xiIYIONGzf6rlq1KkUkEtWZZKHVam/m5+c3SODFxcWlGAyGQXQKxIHV9aS/q1nvevKxY8cg8BrSwdi20QhA4DUaSuyICJDACw4OztTr9f7CSZfeVw2AdwiNlIyMDKcFHi2JNmfOnF+8vLxUzAVIkxA9aQtLGDiC/Mvmz5//0FjwSOBxHGcXeGx0Vi2TQpO4YwIvzM3NjWjWrFlZv379Fnt6eoZTPKOw5AlNbiTyiC2zXqhUqv1paWnjwsLC5DzP7ysvL29HEyDrC+oDJvLY55RkERcXN87b27tagfeXv/ylVUhISIs9e/ZYu3TpUtaqVasr586dEwvXLXa4aNNMJtOw2gSe4wHDLvB2796daLVa+UGDBkWLxeJFEomkciWLmq5ejUbzwZo1a4JI4OXk5AxKSkraSLFfwiQeGm8khIhl06ZN7XGgFa7bhJycnLmdOnVyyjLdt2/fjiKRqPDWrVu1CjwWg1dV4FGSRdWHq+pctCKRyPfMmTMk8LxI4EkkkmASr56envbEJHYtUR8ySxW1tVmzZqtWrVr13v2w4G3evNl3zZo1KaWlpc1IiFb3Ym0lS/O+ffueIUueM3dohwXPLvBYPCkTeMIYR8H/IPCcAY1t7goBCLy7gvXh3Slz0ZLAE5YwqCUYukEC75VXXmlaWlp6RSaT2f2xzNrEar/RzZgmJLoZq9VqyqKN9vHxeShctF27dvWTyWTU1v8W6XK82ETtENhsObcdmzdvjlAqleUjRoxYabPZAoXlH4RiXbi9Uqk8884774xwc3MzFRQUfFleXm5PshDWCWPbCty15lmzZo0bPHjw7wQeifXi4uJ309LS/lJx3m04jjNLJJLbWq12d+vWrTfn5+dzrDQHZdGOGjWKyoHYhYzQVScca45JmMqkxH788ccJJPDeeeedaLlcvkhcVwrtf7OLC9esWTOpR48eNyZNmhRw7NixtWQdZWxYHTa2Kyb85HL5gby8PJ927dr96szdYOXKlc/s3LmzUKfTdampbeyhiY6pVqvztm3bZrfgjR49mpJJKpMsqnNjOphZbDab79mzZ3c4BN4ijuMmMVHPBAzrP0c9Qft4UalU981FSxY8KpNis9ma1eWi1Wg0t/bu3dsggTd79mwqyTJIWHNPaBUVZtJKJJLIoqKiNXDROjPqsU1jE4DAa2yiD/n+SODFxMSsvXLlylhm7alqvRMikkqlycnJyU7H4NFatNeuXftZKpVWK/AECRYUO1M2efLkh0bgde7ceYxSqVxXncATigPHer12gafVao3vvvtuBrMAVSOW7N3HPlepVMc4jvPbuHGjefz48YdMJtPjTNwRe0f9wcpt6H9yudw8e/bs3wm8PXv2dFy2bFlMaWkpBbO3KC8vr7QWikSiK0qlMv7o0aOrMjMzZUFBQdYTJ040i4mJsRc6vpsCr0mTJjuTk5MnSaXS4sjIyOBbt25REVsFHZNlmQp5CATemZycnAHt27d3am3fo0ePPjN9+vTCkpKSWgUeE18NEHg+Z8+eLXQIvIUcx4VUFXhCwc5c+0qlMjk9PX3W/bDgMYFntVrrXKqsIibu9meffdahIRa8+gg8NuYh8B7yCfAP1nwIvD9Yhzzop0MCLyIiIvPmzZt2F23VQO+q7ZNIJEkpKSlznE2y6NOnT/MbN278LJPJlMyqwspxsAxOiiVzuNDK4uLiHooyKfn5+dKlS5dSkgVZ8H6XLSrsEzZhSyQSocBbbbPZfIQWnOrGJe1HLpefVigUI1q2bGm6fPnyfqvVWlnomLlmmQBjQkEul5tmz549nlnw/v73vz9CAf5Go3GszWZTlJWVib28vOyuThIbKpWKl8lkP8nl8vcWLly4o2/fvtaioqLmISEhq6xW68i7KfC0Wu3OtLS0Sd26dbvx3HPP+SuVygyj0Wj3C1atgcYsoo6M7SMFBQVDn3jiiV+cuaZJ4E2ZMqVOC15DBR7HcaO+/fbbnU4IvKT09PTZ90vgUQyeUODVZIx1d3e/nZub26EhSRazZs2ipJXBtVnwmNiXSqWw4Dkz4LHNXSEAgXdXsD68OyWBN3HixEyTyeTPaq/VZsHjOG7l8uXL4/76179Wm41HJTsc21Ox2v95UaHja9eu/ZtctNUJPJps9Xq9PZbIzc2tLCQkJHr06NEPnIuWrR5BAA4cOKDVarVuVqvVbDKZSvv06UOuy9/xITdit27dxkokErLgVSvwmDioxoJXKfCq9h1NpEK3GAk8Dw+PEfHx8caQkJCDVqv1CRYXRhY84i6M/XJY8CoFHrVr3bp1QzZs2LD+xo0bTdzd3e2xbGT5Y+KT9kOZsBqNZt/UqVPDR4wYcZGWKvPx8UnleX7U3RR4CoVie3p6eujFixdvUWKITCajzF2ZIxu4MsieDUyBBe/o9u3bh7Zp0+aKM3cDEngxMTE79Hp919pctFUFHpVJoSxanuftls2q/cXOhblomcA7dOhQk8mTJy+02WyhQvejMENUuLSdUqlM3LFjx+xWrVqVO9O+hmyzadOm0ampqSkWi6VpXQ+QWq22OCEhof3LL7/8uxg8Gnf79u3T7Nu3T92pUydp586dy6t7yKQYvDsUeFFFRUUok9KQDsa2jUYAAq/RUGJHRIAEXnR0dOYvv/ziXx8XrVgsXrVs2bLZ/fv3L2XxVRkZGZqKtTW72my2dmlpaU04juP69ev3a7du3c6OHTv2RyFph8D7qSYLHst6o20oi3b69OnVWvA++eQTpdFo7CAWi1vRVz/44IOrvXv3vnS/192k8yZr3O3btyUnTpwQHT9+/FmxWEwrDbSTyWSlFdmS57y8vE6OHj36eHBwsEUwgUvJ4iQSiUjg/e46r+p2dQi87Zs3b450uGjrLfDc3d1Pm0ymERs2bDBOmjTpYHFx8ROsVA0dh/gzEcLEBrloY2Njxw8aNCjn7Nmzbr6+vnEymWyq0NJHFldhJrTD3fufv/zlL0Hx8fF7yYIXHh6eajKZ7qrAc3Nz256SkmIXeMuXLx9vtVpX03rLbFWDqgKYCTyZTEYC711nLXgUg7dr167tZWVlf7oXAo8lWXAcF1ybwBMUq04oLCyMvV8Cz2HBqyyTUpMFz8PDo3TgwIFPVzwYVK4lTNf6f/7znzczMjJeqbDIPmY0GtVWq/WKQqH4eujQoUdmzZp1lV1HQoFX3YNElVhMXiqVRpw4caLOlSzomm5orUTMOCBQFwEIvLoI4f+VBOLi4sgSJJk7d659GZ7q1qIkgRceHp5x69atgKqLzteAcvm6devm9uzZ024JOH369OOxsbEBv/zyC2WtPV1SUqL19PSkgqw3pVLpyVGjRmWUlZXtnTdvnt1iRQLvt99+oxg8e623qkkW7BwcVqGymTNnRg0bNux3S5UtX7682549e8YYDIaXTSZTK41GIzObzXTD/9bf3z9uwoQJ1+fOnStix7yXQyIjI0NOMWfZ2dmavLy8d65evRpsNBpf12q1MmpTxeLmpvLy8tNt27bNmD59+mZyXzoEFQm8sSKRiKyV/3OdCydxocBTq9WGYcOGkcDzrY+LViKRnH7kkUdGvP/++8Zp06YdtNlsT5DIIYHGlisTWvDovVDgXb16tYW3t/f68vJybzoPlqHIVgxg29K+aAWM0tLSoLNnz2b/61//ajpq1KhUkUh0VwUeLReWmpoaQgIvKSlpvF6vX11RYsUu8FgNPOF4EAi8I2TBc1bgvfbaa8/YbLbtBoPhngg8suBFREQs4Hk+rJ4Cb2VhYeGc6gReYGBg07Kyss49evRQSySSyzNmzPi+Ma+ZrKwsv1WrViVzHNe0rrVopVLp7QMHDlTG4H300UdeCQkJoSaTaXx5eXlbup85+pLE2a9t27b95LnnnlsdGxv7zdy5c+V//vOfH6GVLKxW65CqAo+Je2axpvuhWCyOPnXq1P9Y8MhiuHz58kc4jmtvNpvFBw8edH/jjTfOVcSi/tSYbLAvEBASgMDDeKg3geHDh9uzMQsKCmpcZ5EEnr+/Py2PFcBKlVS1clQ5YGJiYqJ9JYtff/1VO2HChMhLly7NUKvVHnQjJCuOoPyJreJGe7pFixbvvf/++wf79u1r/POf/9yyrKzsCisFwm62LIuW/iaxQasq2Gy20sjIyGh/f3+7wCPBeujQoVdv3Lgxn+O4VziOU9LxqEiyY91Nc5MmTZL69es3S1iio97AGvhFmhQGDhyojouLs8ydO/fdGzduzDUYDM8olUoJE1BUl+6RRx7h9Xr9f5o3bz5/7969G2miIQvBokWLSOBVu+6uMwJPKPjY9mq1+rTVarVb8AICAr40m81PkgWP+ozVUqvGglfpov33v//92IABA/Lkcvnr9H2Ku6Pf1A/MAshiKUUikVWr1YbExMRsfOqpp7yioqJS9Xr9XRV4KpVqR1paWqXAM5vNqy0Wi5y5LqtmcTaWwHvzzTefKS0t3W6xWOol8DQaTW5eXl6Y0EVbNZNZOBwdYsVqs9lGsSSLkJCQRTzP27NohX0mvKYEFrxqBZ6vr++Ys2fPBotEohZWq1VGxcWfe+65j59//vkEZ5cLq3oZbdiwwY/KpHAc51WdwGN9Qr81Gs31goKCTm3atLlF10RSUtJ7Fotlqtls9rTZbGJW4oYt20cPTGKxeFfr1q2n7dq168q+ffta11fgUXlJmUwWcuLEifXCtWgjIiKUdO1+++23/TmO86R+8fLyklWM3X+OGjVq3vvvv3+suoflBt4+sDkI/O+TPZiAQFUC5JKKjIx85MiRI2Eqlaq3SqX6V3l5+T/kcvkXoaGhV8+dO8cz65ajTEp6WVnZuOqyDKuhuywtLW1uYmKieerUqU9HRERkiUSiXpRFSZM8xc+RYCDLDglGlUrFWa3WIwEBAZGTJ08+4bDg/Ucmk9kzG9lkJKwyL5iES2fPnh3NLHiFhYXdFy1atF4ikfSw2WwS2j+5lelFx1er1bzVav1ZpVJFKpXKj/bv32+71zdiEnmvvfbaswaDgYr09rdarfbzZOuDsuLOlIjAcdzJ0NDQ8IkTJx5pLIEntMIKLXFM4Gk0mm8sFsvItLQ0Y3R09JfFxcV2gUcvtgZtNUkWRkqyGDJkSC4JPB8fn22lpaW9aZ9sHWGaeKkPaF+sPAfP81axWByZnJy81t3dvUlwcDBN8vZkkJrcmI4xUbVMSpSjTEqdS5V5eHjsSEpKsgu8pUuXBspkslUGg8Eu8OjchIH31GaBwPt6+/btw5y14FGhY6lUWlBaWnq3BR5l0drLpFQVeOxarY/AW7FiRfOPP/54YXFx8WiRSKQlqzG7HlUqlVmn0/09MDAwZvLkyf9q6DWUmZk5hgSeSCRqUlW0MmHKxoO7u/uveXl5XUjgrV+/vuP69eszSktLX+c4zi7uSCCy+ozUn/TgJBaLLWq1el5aWtqymzdvPjp79uwkq9X6bl0WPOp+iUQy6dSpUxuYwJs6dWrLAwcObOV5vrfFYlHQ9UTHo7EtlUptGo1mv4+Pz9SbN2+eI89IQ9lg9gIBWPAwBupFgAL1v/zyy1Yffvjh3z7//A4M5owAACAASURBVPMQg8HQzcPDQ0KTGC08LhaLD7Zq1WrF0KFDj7Zv3/4muQcdSRZpRqPRXkdNKApqOGjSqlWr7Fm0W7du/Ut8fPyHIpFIxdZJpZswCQVhjA3HcRQwHbthw4Z10dHRTW7fvn1VSivHSySVpSuEQo/F4fE8X/ree+9FjRo1auOFCxeUw4YNm0X10Wg7oUVLeM4SiYSeyj8JDw8P8/f3/0+9wDXil4qKiuSTJk0ax/N8AsdxWjZpsng2Jn4cYkrPcdx7NImVlZXxERER/jKZjGLwahRALJGhIuZxe2pqamSzZs0MI0aMWG21Wn2ryxr83c3jv4Lsm27duo0MDg42hoaGfmG1Wtsyqwqz5NG5Cld84HneOHPmzPHDhg2zC7whQ4Zsk8lkvaltbEF7xwQoXAaMJkQS9yGxsbG03msTPz+/VMr2rQ23YxzQYhZzPvnkk5VUB0+4kkXVOnZV98WWKjt16pRd4Eml0lSaqIXih40XZjGj/2m12q/Xr18/jJZ+c2Y4REVFdT58+HCe2WzuVo/22evg5efnh16/fl0VGhqaQgWgheK8moc2+shmNptH01q0hw4d8gwNDV0gl8vDWP+xa4L2w65BtkyXSCRa8dFHH8WRi/ann37yWrFixZwDBw4EKZVKDRVIJhb0sEQPaDRG5XI5Wf1zJk2aFBscHNyg68jHx8fv0qVLlGThVdWCytrJPler1ZUWvI0bN76dnJy8SiKRtGPhHNQu9mL957D+F+3bt6/f2bNnPaOiopJkMtlQ4iJkUTWW1SH6Y44fP55KdfAuXrzYctGiRYsuXrzod+PGDRVbBYTGOO2HCoybTCarTCbbNGHChLm//vrr9Xnz5tFyd3iBQKMQgIu2UTC65k7i4+M7btmyZY5SqXy7opxJExJK9EM3QLrR0w3NaDRS+YjESZMmpZJIq1jjU/HKK68k3b59O4TcomRtoldNQdA2my2RyqT06dPH8Pzzz1MGXwpN7pRNSTdCoUhg+3FMypvS0tJmHD161JqVlXWN53kZHYPceyw2ih2TztdRlb+0V69e0atXr95AFofCwsJDOp2uIxMgVYUQO55Sqfx3WFhY+JgxYz6+1z19+fJl9eDBg2M5jntfKJiFYpY+Z5ajiriklE2bNsXZbDZ9UFBQMMdxFKdWq8BzZITuyszMDCOBN3jw4DU8z4+sywJL3FQq1YlVq1aN8vT0NI0ZM+YAx3FPMcubI0awsv8F5WvM/fv3D1yxYsWWhISE1tu2bdtWUlLyKvU1WxaLrXsrFJkSicTKcdzEU6dOZZ07d84rICCAVqYgN3SNLzpH2gfHcQs2bty4lL4YEBAwvUIszqGVLOoSeBqNZtvGjRvDn3nmmVsvvfSSP8/z6WazWcFctGz/THCzflGr1UezsrKGbt269SqzblNIQJcuXcg1p+E47hGLxcIpFIricePG3SDLDcuUpveHDx9uP3Xq1G3l5eXP16d9SqVy+44dO4JpvERGRq6ish71EHgcz/PBycnJm5o0aeIWEBCwQCqVhrPlt9i4YXGt9DddS47rYtEHH3yw6PHHHzdNnTr13YMHDyYZDIbW1H/U/2SlYiKLPaxZrVaDWq2eM2DAgFV9+vSxUva3Y1/VZsjX1O78/HzfxYsX25cqq+k77NgV1vdbkydP7ujr63tjzpw5Yz799NNEvV7fjLwDbEUWdp9g49PBjfvwww9b/Pjjj8rIyMiVUqnUx7HMnt3qJ3Rj0xii/dEazXK5PCYxMXHV9evX+YMHD044fvz4YpPJ1JSJR+F4c8Sj0n2u1N3dPeqrr77Kqm5pO6okkJub25SSQQwGw+2wsDDdvb4P4XgPJgEIvAez3+76WZP1rmvXrhFisXipRCJRsomMDswmDseNjqdA+5kzZ4aPHDnyK4fAo5UQwklo1WXBq1j2KXnRokWxAwcONDz77LMxCoUiniYJ5pql4wlvqGwiFYvFucnJyVPatWtnGjBgwK8VS0/J6Xt0o2VPyPRd5nalz5RKJWWdUhD0hhdffPFRm81G8WMthZN1VVefwy18MzY2NrLqygusE+Lj4ztzHNetYv1WlVgs/rYiXu5MY1Wy/+WXXzSDBg2ab7FYplQ9N2ZpYeUrHBNVek5OziyRSKQbO3ZsaEXMT2JtAo9ZBKVS6Qepqalhbm5u5WPGjKEsQHuZDfaqTqDTZ1KptCg3N3eUWCw2+/r67i8vL3+aLR/FxE5VKwu5wLRa7YRDhw5t7t69e2ue57epVKpX2Xipai1ifU5eX5FINOHUqVObf/75Z6/BgwfTOAuoz8VgtVoX5eTkLKHv+vr6vieXy2cLx3RNDyBKpTKXsosdAo/q9GVYrVa7q429GEN2bTjiD4+uW7du6KJFi36lmFVyma9bt65VaWnpgNu3b/dt2rTpIzqdjsrblEgkkn19+/b9ICEh4RfBSh1PBwYG5pWWlvasS+A5hELhxo0bJ5aWlpLAW2Oz2byr9rtwP4LrMrzivDKlUqk2ICBgPmWBVifwmKWLCTy5XL6gsLBwycWLF/mwsLCYCpfnPKVSaX/Iou+S9Y6EHrOOM2Gj1WrzwsPDab1b/fDhw+0DjERNUFCQ3MvL61kvL6/ON27c4LRabdG8efN+qK7t27Zt80lISEgxGo3Na+o31j65XF4cExPTwcfH52bPnj0DOY5bIZVKPasm8dBxmAhz3N/4Dz/8sPnFixepKsByiUTixx5Y2P2IPRiSW1ewhN/0U6dOJa5YsUJJS9WZTKYpcrlcTNcEbcfCFlgWNn3m8FKs/Oabb96na0PY5lmzZr1++fLlv33zzTedbTYbWQFvtGzZ8gNfX99PxowZUw6Xbn2u/of3OxB4D2/f19ryuLg4xUcffZQjl8uHkdiiGxPdiFjMF20ssJYVT5gwYWpYWNh6itd74YUXEsrLy8NJqNVlIZHL5UnTpk2LHT58uPHll1+OrrBuLGOrH7BEieoEnlQqzU1MTJzSvXt306uvvvqrUqmUkxhjN1KW5chi9xyTYKlMJos6fvz4Rord0+l05wwGg90KUMsETxbBm7Nnz44cOnTo75bWmj59escLFy7MPH/+/CsajcaDDBwVT/ClTz311CoPDw9adeF3N2tnhhoJvCFDhsyniYK5ldh+iAuzAjisVNSOzMzMzJlarbbMz88vVCQS1SrwWNslEsmu1NTUcIfAWyORSH5XQLgmgefu7l60ZMmSUW3btjUPHTp0f1lZ2dMkspm1o+qDAZ2nQqGwlJWVBX733XfZH3zwQasVK1bkFxcXv0rnQv3FhDkTrgKhaOV5fuKZM2eySOANGjRoJcdxdQo8h+hYuGXLlqUWi4X39/d/T6FQxLJJvbb+VygUudnZ2Uzg+Vut1nSO4xRsbLJ9CK3Fjkn8yNq1a4c+//zzVHKDf+utt7r+9NNPCxQKRW9ay1aj0UhYfKBcLr/N8/yuGTNmvE/Z4lQ+48KFC0+TC1ssFr9Y17ihYysUisL169dXCjyO47yrxgdWI/Ao65ME3lqRSKQZP3783IoVO6KY5Zb2y6xaVd22CoXCLvBKSkqo3MdMNze394xGY2XcncCSaU9aophRhyDanpOTEzhx4sTyFi1ayIcPH26m9r766qv+er1+pl6v9yTLv06nu92tW7cvX3nllfiYmJjfCb1Nmzb5pKWl2QWeUGhXJ2DVavXt7du3d2jduvWt1157LdBoNK6siGf1IA8BCwNg/S90sVOfVSfwWLuYcKX7IdsP3R8tFotd4H344YfqhQsXUlbyZFYqSFj4m503u08plcrUo0ePTmECj6y5/v7+Q7/77rt4vV7/mEKhoJV6aHU9SjS7+sgjj6w3mUyrv/zyS7v1t64xgv8/nAQg8B7Ofq+z1RSjNnLkyD0Wi6Uvq2tGN0ASUewJn1nyZDIZuc7mnD59Op5EzosvvrhSqVRG0KLlbOKrSUAJXLTGTp06RavV6mXshssmF2E2IBMMMpnMLvDIgvfOO+/8SqUrmABi7ko6V7qB0jaOgPgSsuCdPn3aLvBu37591mazNa8OhsACQO29OWPGjMh//vOf+ZRNS9bNhISEPnl5eSskEkl3CtgmFzBzL1osFkv37t0z+/btO+fy5cvFtZVXEbrlyIpBopA+c6yTypHAGzhw4AKLxRLDLETsfJmoY8HiDsGXsW7dulkk8Hx9fWnZqaSqlhxhXzBmJPCSk5PDPDw8DP7+/mtEIlG9BJ5KpTq+efNmH41GYx44cODnYrGYykDYeZPVlJU9EVpy5HK5xWq1Bp46dSr7/Pnzjw0bNixfJpO9xoobMysHi3dikyrHcWTBqxR43t7eK8njWttgpvY5JtEFW7ZsiSeBN27cuPdkMllsfWJESeAVFhZGtG7d+vaLL74YYLPZiI3dRSscn+wc2LnK5fKvMzIyhj3//PO/bN269ZGlS5cmKpXKkWQAJy50bPbQRAKhadOmNqPRWBgdHT31hx9++HnYsGHtJkyYsNVkMr1U18UqFHjXr1/XTJ8+PY0sePUUeBECC94CiUQSXp3AEz6o0Xu5XL5w165di0ngjR49msTyNMpKZdZbEjUsI52JO8dDYW6HDh0mbdmypYyEyaVLlzxnz5499/vvvw+lh0O6loihw8LFqVSq835+fjPCwsL2ssSFwsLCUYsXL6b4y+Z1xeBptdrb8+fP79C/f/+by5cvH7d9+/ZEi8XiSdcrq7PI7jfMEuvYJ7d79+4WzIInFosrLXjVPWjRPhzxiVPIukhxxNHR0fMlEkk08yjQ8Vi/s2Oxot5yuXzd0aNHqUSNmcJNpkyZ4vfll18us1gszS0Wi72aAF1XjnsZT/cYuVy+bO7cucsGDRpUVtcYwf8fTgIQeA9nv9fZahJ4/v7+n+j1+n7MSsFubKy+Gd3oHZYai0KhmDd16tSlw4cPl7z++usrf/vtN1q4vk6BZzQaE9asWRMnEomM06dPjzKbzcvpZkY3YCZohAKPnQtZ8JiLdvDgwddMJpOMnVdVix+do8PVSu6w6JMnT2586623WpaWlp4zmUx2gVd1omCTvyNY/ObMmTMrXbQrVqzolJ+fv6qkpKSfUknea7H9KZ6WRGOZeFRg1Ww2rwgPD19eISj+2xjHiwTcnj173GfPnt22YqWJxy0Wi8TPz+8/Tz755IUWLVpYKFmlT58+MsravXr1qnrgwIHk6pnGXEKC/dgtpCwL0GFlycjNzZ1JLtr6CDza3lEHr1LgjRkzJk0ikYwSuupqsuDxPH+8oKDAx+Gi/dxisbRnSS3MXccmP2ZxpO/KZLIJRUVF2UVFRY+FhoZuE4lEvZlbnrYjl9ft27ftVmOhBY9i8JgFr74CzyEUhQJvhkwmm1MfgUcu2h07dggFXjoJESbwqmbSsng1pVJ5OD09fTgJvPz8/Nfmzp2boVKpnqWyNp6ennZxSG2jvx0CjcaoTiqVhk2aNCn3lVdeaTNx4kQSeC/XdbEKBZ5Op9NERETUW+CJRKLJ69evTycXrb+//zxaS5Vd54yPMN6TtZsJvJ9++kkWHh4+x2q1TpHJZGJqF8uiZtcVG59UAqd58+bZGzduDMvNzTU0a9ZMunXr1qlWq3V6xX3Ag1nuaUwyPnQOHMf9w9/ff3JMTMw52uesWbN8PvvsM1qqrHlNIpZdzyqVqrhfv37tlyxZQi7a8fRAWZGw5MEeTgWu6sp7gEN82Xbv3t3yypUrlORE6w/bBR7rb+H2zG1NMXgeHh6RR48eXVNQUKBesGDBPLFYbH8wE2aWs+uYHZt+a7XazK+++opCYsybNm3qkpSUlC6TyV41GAz2bF+hRZxZuOVy+S0qMn7+/Pl/1DVG8P+HkwAE3sPZ73W2mgTe6NGjP7ZarW9Wtdix+nbMTUUFaMmC9/77768ggffcc8+RZYtKi9jLDrAn5OoOKpVKE1asWBHXp08fY48ePaIsFstyOh5N8MxaJxR4bNIRCjxvb297kgVze7Dv0/bsSdmxrxIqREoCr1u3bi3d3NzOk4u2pomePneUarm5ZMmSSG9vbyp3IHvppZfGmM3mNLVaraJzZRYPelJ3CEIWQ3ikV69eYZmZmSeF4q7CYvXsDz/8QOvEvmaz2dp7enqSBfBfUql0X5MmTdbPnDnztwMHDnBk+SML3oABA+JoEqQ2sDax/TmsKSyRgD5O37p1qz0G7w4F3s7k5ORwsuAxgSecPGsSeG5ubsfT0tJ8mjZtavbx8fn89u3b7dl5Mnc+m9BYDBPHcWaJREKxdHaBN3HixG0Vk3hvlrxDoodZjYWToCMGz55kcScuWoJis9l+56KtyOqMZeOrtvGpUqm2bty4MbJTp052Cx7Hcek2m80u8IRCSDjWHLGghzdv3jycsmg/+uijgUuWLFlnMBhasDhD5pojqy99n64phwV426hRo8IGDBjgGRQUtNVoNNYp8Oj8lUql3UVLAi88PNwu8GqybgkeaKh8TOTGjRupbiXF4NkFHhvPbIwxUUfXF7OqymQye5IFCbzIyEhKWKEQAjFLjGLfo78dLldRs2bN6MFty5YtW0I7depUtn79+u4JCQlpSqXyFZPJZBcyQkshe1CTy+UGiUQSdeTIESo/Yo2MjBx16NAhKpHToqYbGWu7RqMpLigoaE9r0UZERIw/cuQIWfAonOJ3ZXyE49vRfttHH31kF3ghISHLRSLRGGHZH+Fx2Xg3GAy8p6dn1Ndff51WUFCgWrFixXzyGLDxRduza4AJRTpPsnBardbMI0eO2AVeenr6yNWrVydKpdLHHA9f9gdeljHP+sFhzZt39OjRBcK6e3Xe3PGFh4YABN5D09V31lASeJQ1Wl5e/ia7gdGNj01q7DO66RgMBpqw55w5c4ZuhNKXXnpphdVqjWRPnbVNoDzPJ86aNWsOxeCRwBOLxctZ1h1tx6wHLH6FTU5yubzSRfvXv/71mru7u4yVZ2A3RWFQNE2gTZo0Kendu3fU8uXLN1GBZJPJdI65eYRP8kIRRZOMh4fHjZCQkMgxY8bkXr9+3X3AgAGb9Xr9YLJM0ATG4v5YBiFL9FCr1dfEYjFNTNtYluSoUaNevnTp0kyj0dhfIpGo6UbPMpNtNptOJpPlvfvuuytatmz5Q1BQkO3atWtqb2/vhRaLhdjYO1E4AdN5s0xjRxsqkyzqI/BoG4cbu1Lg+fv7p4nF4lGsv2vqP8cEc3zDhg0+arXaPGrUqM+pUj9zz5FVk9gwawfLjKVJzGKxTDh9+rTdRTty5Mg8mUz2usNaY7dIOrKe7eKH9bkjcUWYRUvjbFxtI5uJuIqiuwu3bt1qz6IdNWrUDIrBYxNmbeNToVBszcrKsgu8Xr16BVgslvSKhA05m2SF1wQbQ/QZWfCys7PtAm/kyJGjvvvuu/VSqVRD44UmdFbnkYUR0P4c9Q3Pbd68+f8ozs/X1zfXZrPV6qJl7aMYPEqyYALParV6V30YEHJynGu1Ak8oqqskVFVejzKZzO6ipXV5hw0bRmJ5Gn2XRBq1g7keHeKaucnpgalS4G3cuHF4amrqKrlcTtZ0e+Y8PRAytsKHGIVC8dGnn346ulmzZqX5+fkjly5dSusQt6hJxAoE3q0NGzY807lz55sbNmwYl5KSkmSz2TyYVVEwtirxOESm7eOPP/4fgcfCCITbsQdER7xvNJViIRdtVFTUPKlUGsNcq8x9zb7PxjZtRw9mRUVFk0l3DhkyJPrKlSsLysvL1ewhmdXnpH2xsAfHg/BHlMzTtWtXlFe5synuofg2BN5D0c133kgSeH5+fntMJlPf2rZ2WMgsFZlwcwYOHEgxIdKePXsu5ziOblZ1JlkIBV737t2jJBIJicRKSxWbwNhEw/4WxuCRBc9isdhdtCR2WGkW5hZhGXMVAeTFYWFh0YGBgVnt27dv3rRpU3LR2q0AVQUea7NDyF6fMmVK5OjRo/Oo5tfQoUM/t1qtzzErBTtfodvGEUekUygUka1bt95MmZS7d+9uPX/+/Hiz2TyiwgIiZ+VcWG0xs9nMU+V/lUqVRtmvX3311Y2rV6+qhEkWTORVZ8lzHD8jJyen0kUrFouThNYJYTtZ/zjOtVLg+fn52V20Qi7ViSDar1KpPL527Vq7BW/IkCGfm81muwWPiVD2QMCsqo7fNBlVWvCCgoLybDbb63QMJrqqsb5SH/0uycLb23uFSCSqVeCxfqySRWsXeFXbV904Fwo8RwweJVnYBZ5QXFQdp7SuaXp6uj0G78UXX/Qzm83r5HK5krYRxoZWdREqFIqLO3fu7Hfr1i3FxIkTc41G4/8kWVQVNY5++J0FjwReXdftf4c9H10RI7iGaiyOGTOGLEFhzOottH5XteJXrBxTGYPn4+MTK5PJpgutb8KxRefHsnAVCsXmrKyssC5duuj79OkToNPp7IJLGPcnvPbYPhUKxdm///3vb3h6et7Kzc0duXz5copzaym0vrPthHwqYoFvZmVldWQCLzU1lZKO7KtJVLWIs/ZWJ/A4jhvD9i+8F1UjMKNoqbJ9+/Ypp0+fPk8kEk0R9kNNlnBak/vEiRNT6D6xZMmSaRW3wHkk8qv7vnB/KpXqUHZ2dv8OHTqY7vwujy1cnQAEnqv3sJPtI4EXEBCwR6/X11vgvf/++8vJRfviiy8us9lsUfdC4FEW7RtvvHFNpVLJaBJiS12RNYBiuqq4bYtDQ0Ojg4KCNvXu3btFWVnZObIC1EPg/TZt2rRIWnHh8uXLTQcPHkxrrj5bD4FnHjlyZOS0adMyqJZVjx49vGUy2Qaj0diUjklP5Y6C0fZeYvFLVGqFXGXHjx//gmLwvL2951VY96ZW7Uo2IQknU57n75nAo+NSksXdEnhVJ/rGEnh+fn6UZDH7Xgm8rl27+qlUqnW0FB5ZqMgCQ5YZslKy8ckErVwuv7Rr166+tQm86oS3sy5anuejtm7dmm6xWDRUJkUikUQIxxV776zAY6KdCSG5XJ5FdQXPnz9vWL58eRCVLbHZbFQXsFJwCfudCbiKBJXvPvvss9dI4G3dunXEihUryIJnF3jVXRfsMyorkpWV1akhAi80NJTCRuol8MRi8eSTJ0+mkcCbMWPGXJ7nf3fd1iTwJBJJalFREQk87k4Enru7+1cbNmx4EwLPyYnOxTeDwHPxDna2eQ4X7R6j0ei0wBM+Xdf0JFrx9J4QGxsbRy7aP/3pT1EymeyOLXh9+/a9plarZWT9EZZFYVYVtuyVUqksnjRpkl3gtWrVqvnTTz99vrS0tFaBR/wkEslvU6dOjfD19c0vKSlp2r9//4Nms9ku8JiLjo5VjQWPMuKii4qK1vz888+qirV8F5SUlEyhc2RZpszlw6wJ9NtsNhvkcvl7a9euXdOqVSs5xeDZbLb/icFjVrEHTeBJpVLKFLZn0VIM3v9j7zvAo6jW9zNlS7IpEAjYBZQLUgQBBRUR5K/oFURaIIEkhCSE9EKvSehBIJ2QhHRKCBJAihQVLGALPYKKV7kqWCjp23fmv9/e+fIb1pTNJrTl7PPwhGSnnPOeM3Pe834NFDyO40wmWrGCV4+SA6XK6nzwrFXwrCV4kOgY06Q0R8EDgufs7LypsrJSBuMNwTg3b96sM19DP5tL8Mw3JfURPHNfOvG7QCBGRtdZLkLsgwel4MQED9tmTvCMUesmHzyIom1MwYPzRdUv4BnJy8/PD9uxY4dy7969ARRFQS5DhQUE78KRI0deQYL33nvvmQhefe83MwXv2s6dO021aLOzs6empqZCVHmzFLz6CJ7YL1jcBsDv1KlT6fv27ZMuXrw4rhkEL7m0tHSWiOBBfWyTr2djHwcHhxP5+fmvEYJn7Upn2+cRgmfb42t17wQT7UGNRjO0sYuITbRiBU+v15sUPHOToPm1zAme0dn7PbHpxBIT7ZgxY/4ymoxYUO8w9x4sSFjzERZUeCFzHFen4PXv37+9Xq+/AEXRsZ14X2wjth0I3uzZs8UE7zOtVttTbCYVtxnNkjRNg9kECN7GH374wXHSpEnpLMtOBtUOyzghwRP7HQlpRlbl5eWtcHV15caOHTtfq9WaggLE92wNBQ+vwTDMLUEW4INnboKsbx5YouCZm11ZlgWTvh9G0c6YMaNIr9fXS/AQS2GzAASvLtGxJQQPzzdmlag30XF9CpC4n2ITraUET/DBu8VEq1KpoGScieCBaV4ciS7uoyUmWnOiZm6ihShaMNE21jckeAaDIaqoqAjMzmCiXQp58Swx0VpC8ETPT91GCMpyFRQUhIGJduDAgX4GgwFMtI0SPOivVCq9RcFbs2aNieA1RIDw3jKZ7I4SPJ7nw8+cObNh3759soULF0IUbZ2CV19bRe+KpNLS0tlQj3bPnj1zjaH5YKJtkuA5OjqeyM3NJQTP6pXOtk8kBM+2x9fq3gHB8/b2PqhSqSwheFpjEEEM+uD1798/nuM4U/RYUwRP7INnrYI3fPhwk4kWc96hGgALKTi0Qz4++L8xws2k4Pn5+eUBwTNWa7ig0+luicSrz1+Npum/wESLCt7w4cO/0Ol0z1hC8MaPHx8+f/78zLKyMkc/P7+UmpqaqdgmdLoWKzgCoYWSRwlpaWlxjz76qG7cuHGLtFrtAjGhE9+7JQpeQwQPfPDMfapai+BBHjw7O7sGCR4Gx6ACLFJG/0HweJ6v88FrbAE1GAwrCwsLV0IfxJUsLCB4W/Lz8yMgyMISgofjIpPJ6ghejx49pjg6Om5iWVYGyh0oyvjB47GPYoJnaR48uJa1JlpxmhSMohXPM/x/EwreIpZl55rPFzHBw4ACEcFTDhw4cLrBYAAFr1ETrdC/7w8fPvwyKnhNETx899xOgtfAfLuF4NE0/Q/XCnOCLmzu6gjeBx98MMfo0rEU0/E09hJ3cXE5sWnTJkLwrF7pbPtEQvBse3yt7h3P87IXX3zxoFqttpjgoYJnLcFrTpAFwzBFycnJM9u0aaOeOnXq3waDvmgj4AAAIABJREFUgcG0CriwiKNxhSSjJgUPCN7BgwddY2NjL6rV6jo/HvMXtmiBuoXgoYm2MYIH3zEMo4Eak8eOHdv4/fffO/n6+qbV1taa0i1grV3cwcNAYYkuiLhlWTY5IyMj5rHHHtOPHj0a6lneYjprhODVVbKAKNqmgiyQXFIUtSs5OdmUJgUTHTdm4sOJZaxT/A344LVr1043ZsyYj7VabVdUXbGN5goeVLIAEy0oeBBF6+Xltd1gMLwCWGAJJ0zBY0Y2biF4I0eO/EeQRX1jCAuoGcGbi2lSmkPwBgwY4MVxXAb40jVkosU+Q5AFJjoeMmTI5MrKymw4D+Yo5MED/1BxH80J3o0bNyQCwRvYlJkOxkIikezMzc2dLpQqgzQp71ii4NnZ2UViHjxzHzzx5qye5OYrd+3atVww0ZoIHh6D7UWCLq76wTCMyUTbs2dP5YABAwLt7Oys8sFrzERrpsDW+eBZY6KFRMczZ86EoLEp5opkaxI8hmESv/322zmg4O3du3cW1E6Gso9NjT1sJF544YVhKSkpJMjC6tXOdk8kBM92x7ZFPTtw4IAsJibmoE6ns4jg8Ty/ZOHChaY8eP369VvF8/w/aqc20KBEY743iMBVIcHDl5pZ5GVdTjv4O0bR7tq1S7N3795r7du3pyH1BJyLiZIxaEGUjLbijTfeiJLJZAVdunRpm5ycfMFgMNxC8HCBFi+OoODNnTs3bNKkSTsEH7xPtVptLwsIHuQHhKi6dCB4kydPhhqvnkDkMBlwfQQP/say7JqCgoJlLi4uhjFjxizU6/ULzRU8MQETYZWVlZU1HytZNIPglSQnJ4dZQfC+zsrK8hQI3kdarfZfDRE8HH8geGBq/eabbwqA4Hl7exfr9frBiAVWiECCIFrkIIp2+pkzZ/J//fVXl3feeQcqWdwSRdsUwYNKFt7e3nOkUmmMOUmub35KpVJU8G4+//zzkLsw00KC91VGRgaUKru6evVqz/fffx8InhxUW3AlABVXHGSB/pxSqfTStm3bhiuVSokQRWtKk9LUQi+VSt/ftGnTdCHRcSrHce9aQPDAdBq9bdu2NHEUrXhewX3hXz1BFqt37969tCmCB20XpzhiWTY3Ly8vHAje888/H8DzvKU+eD8cOXLkJZEPHkTRdrSAoNdF0QoED6Jo21gaRSsmeKgK4ljhmJjNo9DTp09vFEy0sTRNQ0Rsgx+c82KCt2fPHoi8XYbzrAkF78vY2NjXhg0bdksy9Ra9/MnJNoMAIXg2M5St25GpU6fKf/zxx8NKpfIVC65sMtGigjdgwIDVer3elMEdPw0tUDRNJ8XExCy2luD9+OOPmuTkZJOCB7524lx44IMHZApe5rBAKRSKyh49ekTV1NQU9OzZs+3evXshD56J4Jm/rMXmQYqi6iV4+KIXqWAmEioyewLBi4AXPhA8T0/POh88gcTV5XkTX0soYVVH8N59912oFDAPF1tc1MTtNid4xvxbVVOnTp3BMEyyGHuxKiMeG4qidiYmJoaBIurj45NhZ2c3wUIFr9kETyaTgYm2SYIH7TNrA5wHQRYFkOi4OQoex3HxW7ZsWa5Wqzlvb29Ik7LEEoInk8k25+XlRXbv3t1agvfXgAEDPLVabRao4oA/bEDEBeqhnzj+Mpnsp61bt74GBA8VvKaeIfieZdn38/LyAkHBCw0NNRG8poiFkCYlNCcnJ0uc6BjnVWMKHsMwq3bv3r3s5s2bUIUFFLx5YgVPTPIFBdX0XDAMk1NYWBgBUbTx8fEBgoLXoA8emn0lEsnFjz/+2BRFu2XLlgkQRUtRVEf8vqG+SqVScwXPGoK3luO4yZYQPNjQnT171pQmZfbs2UDwmjTRAlY0TSecPHlyruCDB+/O5ZYQPLlc/lX37t2H5eXlEYJnwUL1oB1CCN6DNuIW9hcUvGXLlh1QKpWvIbHAFxwuAJgmBKIiwSl43bp18UOHDqX69eu3VqfThcNChoW2GyJ4UM4rPj4+ZuTIkdo+ffqEsiybIC7L09AOnWGY4jVr1kTHxsZyVVVVV6BeGC4k4mhWXGiERbAiIiIi0sfHJx/SnYwbNw588OpVAcQkSi6XXwsNDQ339vYugvPGjh37eXV1dQ8ws0JABDrO40KNplapVKoePnx4eHx8fNZvv/0GJccg4/88OAfaiLiiQiI458N36tdee232qlWrNv7111+yMWPGLFepVKYi8HAvrKOJVTTEBBMUkvXr14O5rDwyMtKPoqiNOG7mRMGM4OzYtGlTRLt27VRjx45N43neU4xdQ2Td3t7+ZEpKykSoZjJ9+vRjSqWyi/k4YD9FizEkRZ42f/78LZcvX354zJgx23ief9X8HhihLEolAoXWg86dO5f9/ffft/X09EwQ5ydDHMQ/ca7q9fqlubm58R07duTffPNNKKsFPk6mOdPYB2rRFhYWhp89e7Z8zZo1UMkCzJ9SsYlWjJNoTL8oKSlxf/LJJ/+cPXu2x6effgrF4eViko6mSyEAyET89Hr9L2+88cZQlUol+/rrr7dpNJr+4mfA/DkS5WQr3rVr14xr167JwdeTpulx5uMu7qdwTQNN04Hr16/PZ1nWKSwsbIVxMxME7TE3q+O5gnoOc3Tt3r17Yy5fvswHBQXN43l+MU3TlDiyG+cX+BxCYJEQ+JT94YcfRrq5udU+//zzvjzPQ1SrEybwxZrOWM8Y2gGVTdq2bftDcXHxy1CRoqCgYFJSUhKUKnNr6L2CmLEs+9fu3bt7QBRtXl6ed2JiIuSFbCvGFBR+UP9hQygio9z+/fvdLl68KJ83b946juNuyQuJ90UFTpjbUCM26Lvvvtv05ZdfQh7DGMgP+D8Btv6lFu4H70gHB4fkr776ataxY8f4iIiIOQzDxICJFtVswAFr2uLGFc61t7f/YuHChf/v3//+NzHRWri2PUiHEYL3II12M/oKL5dXXnnlg5qamhG4UNRn/hIywkOh9GUFBQUr5XI5BQuvXC4Phpcm1mls6AWn1+tXpaSkLB06dKiub9++waA4iStgNNRklmV3vvfee5HLli1jbty4cVlMIsQET1wSiKbp8vnz50dOmDChAEytr7/++gWtVnsLwTNXu4S0KzfDw8PD/fz8tpSVlbn6+Ph8odfrn4G24UIoqBN16p3w4lbNmzcPgjM2AZno27fv6xqNptDR0bEDEkNUGFHZgZ81NTVnVq1aFfz777+feu211yQeHh6rJRJJCNwPSRK+8MV1P4X2FCQnJ89+6aWXbjz77LPeoJhYSPCKMzMzI9zc3NRjx45N5nnelPfLnGCbj6NcLj+9fv16d2dnZ62/v/9nKpXqSVSjcBzEJi0hlY12xowZvt7e3lt/+eWXh8aOHbuF53lTzWMxCUWCh0TImEyb0+l0IUuWLMnq3bt3Gw8PD4ik9KiPfIoXYIFAL9q/f/96vV7Pv/3221ESiWSFJQRPIpEUb968OeTq1asVs2bN8ud5PhlKlVlA8D4tKSnx6NSp0x8lJSWTli9fDmW27LGUF7RZlIC7zgzq5OT0G0Sug3pDUdRmg8HQrzGCh32nabpo165dwdXV1ZCgPMnOzs69scdduKbeYDBMO3/+/NZvvvmmzfTp01dSFAW56W4piyV+/vE7MClmZ2cvunLlin7evHkmkyLDMDSqeHhvJCj4k2XZrA8//DC6Q4cONStXrvTavn07kFEXxAKfY6zTiyXrNBrNTwcPHhwEBC8jI8MzJycnWa1Wt7OA4F3dvXt3byB4ubm5XklJSUlA8FAZFsrKmZR+HBshWTpfVFTUHirJzJkzJ8FgMEwQPw/1ETyYn1qt1u+7774r+PDDDyVz5sxZYvTDnd8YwcOIamM1jw25ublRx48f5zMzM+fL5fLF1dXVLFYGQSKJmwkk0m5ubp8eOXJkBEVRhOA1Y317UA4lBO9BGelm9hPMSS+88MIBvV7/Gi605koemj7t7e0NFEUt27hxo4ngTZkyBcwgwZYsTAaDYXVycnLc0KFD9X369AlmWTbJQoL3/nvvvRcVExNDVVZW/he2yPjyExM8kYkHFISK6OjoOgXvnXfeucBxXEdzgiBWtuB8MAtNnTrVRPBOnDjhGh4efpRhmGfBzIbpWOAauIghEWMYpnrBggVh48ePz4e/Qc63uXPnrqyoqPAEFQiOx3QZ8CK/fv067+joWKVQKOKXLl363oYNGyTLli1jPTw8IHVMILQLFA5YgMyDEbAPDMPUEbyePXt6SaXS3IaIGuIljGtRYWFhlEKhUI8bNy7VYDBMNlP4TLcwX1ClUunpxMREJHifqlSqTuKamRj4guXY4BpyuVwzd+7caePGjTMRPPjJcdwt+RbFqphIpTLodLrA8+fP537zzTdtAwICwPzsWR/Bw7biQs5xXFxOTs4aUPDeeuutaJqml0F3mlLwoHTcxo0bw6qrqytmzpzpZ2dnl2Ihwfu8pKRkIhC85557zkOv10OpMnuY20LAT91mABdvYVPwq8FgGEpRlMTe3h4qWTRK8FChhHbu3LkzGBS8gICAJJ7nJ4hN+OaPv4jgTT5//vyOL7/8sm1wcPBysYJnbv4UP1/g25mbm2sieHPmzJkJz79RFa0jePjsY6Q4qtp2dnaZBw8ejH7ooYdqi4qKJq9cuTJFJpO1BXIFH6Fsl11FRQWUFqwLPJLL5T9kZWW91KtXLyg95pGRkZGsUqnaNzR+eH+pVHq1pKTERPAKCgq8EhISQDF0Fc0L032hnaisC88Lv3XrVhPBmzt3LlgVLCF4vMFgmAEK87FjxyQRERHgBjCvMYKHZQ0piko7efJk9MmTJ3lfX18ghaCIslj/Fp556Cu0EZV+YUw/+/bbb98gBK+ZC9wDcjgheA/IQDe3m0DwXn755f0qlWo4vCzNfbfwb0I9VoNUKo1bu3btKjc3N9rX13e9SqUKESc4bWSnHZ+enh734osvap999tkglmVhAa3L8N9Qu1mWLVmxYgXUlaWuXbsGCt4/CJ54kQcCBQQvODg4ws/PrwBNtBqN5h8ED++JqpyxIPtNKFXm5eW15caNG84jRozYyrLs26BQ4j3ESp7IRPlbWFhYiL+//168Zm5u7vMJCQkLOY77f3K5XAEkEc2uDg4ONTU1Nfne3t7xixYt+g38IH18fNiFCxeuqampCcJFCK6F2IrHRSAK+UlJSbNfeeWVm88++6wXwzC59Zm5zRUuiqLEBA/GYIo59vWNoSUKHpaPQ4wkEokmNjZ22qhRo5DgbeE4rl4FT2zShILqer0+ePHixdlPPvkkKE6gxtT5RpkTUDGBNRgMMQcOHHgPFTxjqbgVFhK87Rs3bgy1guB9BsodELyJEydOKCsry5bJZE6YiBuiaGE8kajDog3fyeXy7411bN9Qq9X2BoMBSrg919hGSUTwtu3cuTNErOCJzaUNEDwDEHmB4LUJCQkBBS9QrODVd57gXpCUm5u7UCB4swSCR2E6FPGzh0EWwvNUR/Byc3PHbty4MVWpVD4M/rPwLMCYwU8IQkHlVzDXHiguLvbo2rVrVV5enkd8fHyyTCZr39D7ATGTyWRXdu7c+ayY4BlVWFfETayEi58J43zhFy9e3L5du3ag4K3nOM4drykmzmITLSh4er1++vnz5/MsJXhomra3t8/IysoKv3btGpeYmDjr8uXLsZBWB64PmKLSh/2FZwo2ey4uLvuOHz8+Duo7N/cdT463fQQIwbP9Mbaqh5AHLzAwcP/NmzeHixd28a4e/i4kE9bLZLK4uXPnrurRowfj4+MDvlHB5sfW1xCDwRCfkZGBBA+CAsBBvEmCB4l5V69eHblq1Srq5s2bv+AuGc/FlzG8CEXpR8pnzpwZOXnyZDTRfqfVah8Sdux1ZA1/Fy0S5bNmzQp3d3ffcvLkSdbLy8ufYZi1xkhXB+g/LtZwHu64hVQnn0VFRYV4enp+JyKNVFJS0r+gnqbBYHjTmNm/E0R2chz3o5eX14dt27ZN9/Pzq4bjY2JiWBC8Pvzww1W1tbWhsNsHzNE/CWvZwrEic2gO+OANHTq0vE+fPlOgcoAlBI+m6e0FBQWRgoJ3C8FriJzDfc0InknBE/vgod8g4iLkuNMsW7Zs2ttvv71V8MHbyvP8LdHaYnKG2NE0DQpe0OLFi3MEEy2YIm8heOYkD/vOcVzMoUOHICVHnYKHm4LGHhBU8H7++efy1atXT4OaoXq9/pb0FWK1UaRyH9u1a5cnELyDBw++uWjRoiylUvkYliiDRNeABRa9R59MlUq1287ObgaoWjKZbJtSqexriRJupYIHhHlKWVlZMSiiYKKladpkohWb1cXPB256IDgqJydn4Q8//KBbunTpTEh8zDAMJVbf4RqgzKGKB+dKJJKs/fv3RwkKXq+lS5emSaXSV7RaLQWkDsgMzG9IWA6+d4CnTCargWCFjRs35gwYMEC3efNmT/DBMxgM7cxVRvHmDP4PBO/IkSPPggqPCp6Y4IlJHV4LnjOlUsk/+uij7efNm+cwe/ZsMNGOb4rggQeFTqfzBxMtELzQ0FDwwQMFr8EoaPRPlMlkWdnZ2aG9evXSrl271qOoqGi9Tqd7CP178TmCa4n88gzGv8eWlpaugs2PVS96cpJNI0AInk0Pr/WdE/LgmUqViVUU8QsVXuCgYrm4uHC1tbUr8vPzl4GJ1sfHJxEWYiBXuKNviCTodLr4rKwsE8Hr1avXDJZlU0XKWYMvRpZld69atSrCnOCJU2yIX4bwf6hkMW/evEhPT8988MEbMmTId8YghFsInhgxMcHz9fUNDw4O3hwTEyN1cnJ6esuWLSlgvoYFDRZruC8sZrBICeam8n79+sWFhoZugEXJfCROnDhhX1lZ2dWY9b5DeXk5/8Ybb/wxfPjwHymK0uOxQ4cOZY34gN/WKvA9g7+jGoI7ePRxFJkxbyF4FEXliRc9HAdzHyKKouoleI2RO7iuvb396XXr1t1iooVzzH2v0DdLUDw0K1eubJDgmakipuYLcwIWtKAFCxaYCN7kyZOTMLqxPpIu7jcQPFDw4G9oooWggKaekNYgeNu2bRu4du3ajQzD9AV1SsDNpMBAv+CZAgWroqKitk2bNjODgoLyExISnnR2di6qqalpkuAB3gzDmBQ8NNFCFHR9xN6MADVI8MRmdrGCj88m5GnctGnTAsEHDyJFwQfPpODh+0LsKoGmVI7jNh0+fDgKfPBKS0slWVlZs86ePTuvurraGcgOJrnGQCJhA/XRtGnToqOiospg41RQUOCZlpaWrFQq2+H8Nx9H0bP7x5EjR3oBwdu8efOUtWvXgom2nXiOic28qJTRNM0zDOMWHx9v3wyCB3j6lZWVFR47dkwaFhYGPniNmmih3UBoXV1ds0ApBoK3adOmXgkJCekMw7ys1+spIJyCpcTUTWivMI+uREdHT/T39z/e1Dwm3z+YCDT5gnswYSG9FnzwDul0uluiG3EhFRMEmUzGOzg4LDUqTssFE22iSqUyETyxCbE+VFuD4JWXl/8CDvNiYiFSbupMYWCijYqKipwyZYqJ4L322muQB+8fUbRi3zNBaSmPiooK/+GHH96PjY0FUwi9bt26YTk5Oatomu6rUCgYeEkLJhMgvVp7e/ust956KzY2NvZ6C2YT1a1bN8e2bduu1mq1wajYodqDC6+YgINil5iYOAdMtKDgNUXwoG3C+VYRvKYUPPHiKXLANyl4YKIFBU/wwRsqJhLiIAYcS4Zh9BBFu2jRolww0QYFBTVJ8FBdMyN4UUb/puVASBojQYCNRCIpSk9PD0MFj6bpNGPZs1tKSNWn4FEUVRdkceDAATdw1JdIJBAQQsPx6EsJz4iQExECHnYFBgbOCQoK+u+QIUOerq2tLTYYDLeV4IlNtGIfPPHmzHzTA2ND03RyTk6OieDNnj17NkQlo4InJngw5kjaBDUqCwgeKHhw3ZUrV7rt3r17lUql8gbPA6MlgIJnCcieTqfjeJ6/aG9vvyA1NfVD3ChlZWVNAQVPoVDU+e41RPCkUunfJSUlz6CJdv369Ymg4CFRQoKNVXCgvfAPnvuOHTu6RUdHy+fMmZOo1+vHNaXgCUFAgWVlZbmg4IWFhS1uKsgCiJvgn5qTl5cXBASP53k2KCjI+9tvv42nKKodkDxoL2ymQdk05nDkq6qqNO3atVuXk5MT3717d5PiTz4EAXMECMEjc6JeBCCK9qWXXtqmUqnGmhMJJEC4CzbmvKsKDg6GhSmjrKxMOnXqVHDyngEvdvw0pASJTbQ9e/YEPzOIjKxTqho6T6zglZeXX4Zz6iN4sFCBogYvcIZh6gge+OBNmDDhokql+kclCzNfHHiplk+cODFi1qxZhVFRUfYJCQkmGSYmJqbT6dOnF1+6dGmIVCp1ksvlEqVSWS6VSlO6dOmS2aNHD11cXNz/gWDFXBsxYoRrRUUFVLIwBVkg9tAnwa/Q9DeRibaO4IEPHk3TpiALJOYiQnfL2Fir4JkFWdRF0aKCJ46ERXWE4zjNkiVLTEEWQPDGjh1rSpPSGMGD71gWfM5bRvDAB2/UqFEQZLGcZVlTWo/GPtYSPDs7uzoTLVw/IyPjqbS0tKVSqfT1qqqqti4uLqwQoMOr1eq/q6qqdnXq1Gl1u3bt/u7Ro4emZ8+eXRISEopVKlWjPnjYdkj8DQpebW2tHJRNC4MsQHHyKisr2/7xxx+3jYqKgg1LAGCC0efmii+ab2maTsnJyZkPJtrY2NiZEokE8KTFzzzMSawmA9cBgmcwGHIOHToUAQqeMCdhY8YPGjRohlqtDjcYDO3BClBTU1PepUuX488999zq5cuX/yAeI1DiEhISknU6XVsLgizqCF5+fj6cB9jUETx8LqCdoIoBgYK5Bv1wdXV1i4mJqSN4eCy+a/B3kTmbMxgMwefOnTOlSQkMDIyhabrRNClIMOVyeVpubm40EDxhvkgOHjzocfXq1cUVFRWPKhQKSLEDGxKDVqv9o2PHjuk+Pj5J3t7eJqJMPgSB+hAgBI/Mi4YIHtOnT58QnU63WiqV2iOBgEUa8r9hgIExXxNvTMlwISAgICQ4OPhTIHiBgYHJFRUVgUJerwbNrMKOuC7Iom/fvkE8z0MC0zozD75sYcFBMwX8zdHRcfe8efMiIK3VzZs3TWlS4CP2AcLroIIglUorQcHz8PDIEypSlOn1+ofhe7gmECaMrgMVAdoPPxUKRfnTTz8d0aVLly3Gqhv/YAQ9evTo+/TTT3fv1auX87fffnuqe/fu55OTk7WxsbFUfcdbOuXARKvRaJyBjIAiin5soP44OzubxgBVUuwjLKC5ublzQXFasWIFqCJ1aVLMF2vxAmVG8MC/yZQmpSkTLSh4aWlp7pAHLyAg4LPq6mpTmhQMCEETGi6K8BOCLBYtWjTt3XffNRG8SZMmQb63V9Gcj35JeH80S8tkMoNSqazzwZs0aVISTdOTxcSwoTZDpZV9+/atFRM8S0y0YoIXHx8PVTM26PX6f6RJEbdBmHfHIE1K586d/8TxzsjIcLl06dLY/fv3vyqTyR7hjY3iOO7GW2+99eH169d3V1dXK3fs2GGIiYmhDx8+3IXn+WK1Wt0kwWsNE+2XX37ZZsaMGeBHN0McZIHjj6QPA6AYhknJzs4GgqdesmRJkDGAZJ0UEj+q1SYFDN4R8H8YO/BRbd++vcmnjuO4nI8//riO4GVkZEimT5+uj42NlX3++efPDho0qDsQb41GUxofH/+doMzDO6buk5ub65mcnJxsbEO7pvJsSqXSv3bu3GnKg7d161YIzgDV1w3mp1i9Q6KP/YPnqkOHDh0iIyPlixYtAgXPtNHFZ8ZMNceUNxBFG3z+/HlIBcPOnj17oTH4YYFUKjWVUcTNDpqikfQKz/E6wNPcnWPevHmv/fLLLyMuXbrUXalUOisUir/HjBnzvpub2+7AwMB/uH5Y+m4hxz0YCBCC92CMs1W9TEpK6pqXlwdZ6kfV1NS0hd0tvIzgBYXKmEQi+evZZ5/NmDp1asKwYcMqBAUvmeO4QFFwQ0MkEhaB+NzcXPTB8zUufJkGg4GChQEVH1QK0awlvCghfcXMJUuWSFDBg5vUF6CBTv8URVVComNfX9+88vLyNq+//voJjUbzDBA5NM2guQ2DMwQH8f+Gh4eH/vzzzwfqI2ywIOPf61uQrAL/fwoh/emnnzrX1NQsMBgMs6Ft6HsH2IoXKRgTYdFJX79+/cLBgwdXde/e3Vsul992ggd58Dp27KidMmXKZ7W1tU9Cu3AckLQ1RvDefffdbeAKgAQbSDUQWExDgxsFvR6smIYZFy5cyIGggKioqCSVSnWnCV4aBFmY58GzhODhPNizZ4/TtWvXXBUKBSTpvmE0y5rCscXzaODAgV3t7OyKNRrNHTPRWkrwBEJpUvD69OmjjIiIGHX48OENxgCKRwEX2IhVV1ebNkgwD+BneXk5bJRqIG1IQUFBFipV1jwbW7Zsmbx+/XpQ8FwbS3MDYyKVSv/86KOPeoIPXmZmpntGRgZsCh7CMnHwPME8gzYieRNMppyzs/NDixYtuoXgiV1O8F1hpuCZEnHDqygiIsL72LFjUMfWDa4N8xtTneB94e9OTk43ITH8yZMnt4GZ1xyT4uJi5urVq+1dXFzAT7Hc09OzJW4f1kBOzrlPESAE7z4duDvRbJ7n6fXr1z+anZ39tkwmC5TJZM9qtVqTDxGstBRFfeXm5rZiypQpJ729vf+GNgkEL0WtVk/Hhb4hFUgwu8WnpKTEvfTSS6rCwsKhq1at2i2Xy13EahMcB/U7YdEX0grcMOYJWxETE5ORlJTU/saNG79wHGdqF5p3cXeOL234XS6XV0IePFDwoJ3e3t4L9Hr9ElAMYAGCvFvihVvIi8WxLPvBvHnzQt3d3a/cCdzF93jrrbdkf/zxh4dCoUi5efOmIywMEMgBi5CAn2mBEgi4eHDAAAAgAElEQVRfDZQ02759e9aFCxcMq1at8uE4Dhabupxr8H/xeCB5tlbBUygUZ7p37z4hKChIGxwc/Jmdnd2TYD6Gf+DHhMqIOcFbuHChL1SwAAXvnXfe2SaRSF6FdqGJD8cPo06B8LMsC1GKgWfPnjURPH9//2SWZT2bq+BBomNIk2KlgtdigmfJHHrhhRf+xTDMdmNUrUUEj2XZrcXFxSE3btywhzx41gRZBAQErGIYxmSiFVeyQCIj/htN06kFBQXzQ0ND1bt373YyVpRZcvz48ek8zzvg3ESzp6BYQZTnFqPqtDA8PPx3SzBo6Ji8vLzJiYmJyUY/QFM+u/o+SMSMUcFXjx071luoYfvmmjVrUmmafgojdTGvHG4ohXkGc/e4Tqf79+rVq53FPnhiggf3RXIHfzcYDBzkEQSCB1Gtly5dcktISFhx/PhxcJWQAy7o2wj3dXFxgedDp9frN4WEhMQFBAT81RJcyLkEAXMECMEjc6JJBIAMpaenP3z+/PkZFEUNYBjmskajORIXF/fp5s2bK8V1EOFYX1/fFI7jpsPCIE7lYX4j4aX4Xl5eXuyAAQOUp0+f7jpt2rQ8lUr1IjhbC9+blCrYYQPJk0qlBp7nP54+fXpkSEjIxeHDh3e5fv36T5jTDBcnXPTFKTtomq4MCwuLmjp1qskv7ZNPPukzZ86cTVKptB+8q8GUhC9wuE6bNm3Amfm3UaNGhS5fvnwfuMA0CVYrHwCK4Kuvvtq9oqICnMpf02g0NEZfYlJYIFMuLi5gHjo5ZcqU0MjIyK9h179ixQofOzs7awheXZqUpky09vb2ZyBHmNG8pAkICPhcqVQ+IcYc4WhIwbtw4cLDPj4+W9VqNST3NeEPYw19RDOvSE0Fk2bQwoULN0GQRWRkJFQzsITggTU0Bk209wPBe/nll7up1WrIg9csggc+eN7e3uBnVpe3rRECVBdFCybawMDAlSzL3pIHD02RYp9K4W+phYWFJoJ37NgxfXJystv27dtXVVRUTKRpWiGo/RQEBDg4OOiUSuURf39/iBCGSPEWPUfZ2dmTIdGxXq+vl+CJTakymez3jz76qA8QvKKion8lJiZm3Lhx41UHBwfT+wWeIcy7B6QL+qbRaHT29vYr8/LyVl67dq3D7NmzEw0GgynIwpzg4e/CHOVomg45depUFqYtmT9/frvjx48XVlVVDZdKpRKNRkNh/kOlUmlwdnY+6uXlNSswMPBcS3Fp5VcPuZwNIEAIng0M4r3UBSB4np6eqSzLBmDpn0YUPKjduBqcz4cNG6a+evWqQ2hoaNB///tfSATcBsgNKk7Cy5UDxcjR0XH2/PnzPxs2bJh+0KBBnWpra3+BnbeYWIiJGqahsLOzqwwNDY3y8vKqCzw4evTo4Dlz5sRptdpBkPVDIpGYHO/hpU/TtNbNzW39q6++urAlvnTWjo9gopUGBwdzxcXFYy9cuBArk8m6gjM7ppEAvyYnJydeq9X+12AwLG3Xrh2kaNDzPM/07t17KsMwm6xQ8CwmeDKZ7IyxEPzExMREdWho6Oe1tbVPYHZ+dNQX3x/GRSKRaBcsWDANSpRBJYvJkydvraioGIYmWlDxQKXEygJYg9PR0ZGrqKgIjo2N3dSnT5+248ePBwXPwwIFD8jvkgMHDqwTEh1HsiwLOd+afP+ZB1lgHryWmGgtmQ/9+/fvDvdWq9V9cC6bq694HSHIZsv7778f2hKCN2PGDIgsvqUWLd4TN05oeofKCwUFBfOQ4GFbAgICvE6cOBFAUVQHiqJYlmUr+/Tpc3Dw4MHr/P39b1rS96aOSU9Pn5yfnw+VLFzre7eYEby6ShbwPH3yySdQN3eWWq1uA2QL+oPlwOAnz/MqpVJZYty0zhs4cODVw4cPP7pw4UIgeHXBZubjgFYDyGdJ03T4mTNn0s3z0rm7u68sKysbArn7oEJFmzZtWJ7ny4KCgpb5+Ph801SfyfcEAWsQaPIFZ81FyTkPLgJA8EJDQ9OuXbvmL47ybEBFAIK3au3atUuxWPbx48efXLVqlfvly5fHymSy7jzPK8AXnabpGxKJ5NTo0aPTXF1dQcHTw4534MCBjymVyl8hRYPI167uduIoPoqiqqAW7aRJk+oIHhwIxciTkpIm1dTUvFJbW/uw0Xwnad++/R/V1dVng4KCYn19fU0+L3djhw3Jji9cuMC/+eabDocPH3777Nmz01mWHWyspSoRCJBGIpGcUavVG6uqqrb/9ttvamgn5Ovbt2+ft16vz7qdBM/BweFMbW3txC1btqinTZv2uUajeQKLt4OK04CJVrdgwQJfIHhgxnrzzTczXV1d38VgFwx0wYUTfhcIBngGBJw7dy7/5MmTrkFBQZCLcNJtJnjb09PTwf/ylkTHTRE8mqbr0qRY8za4gwTPFEVrnujYvDILEjscE0gXAyRox44d6tjYWFOSXXw+jP5xrmq1+hmKomR2dna/zp8/HxT2VvuADx6YaLVabb0ED+c7/JTJZNeOHDnSHRQ8+H3fvn1tV69ePb2qqipAIpE8KZVKWfAXlEgkoCr+8fjjj3/w3HPPpcfGxpbt2LGDdXFx6QgED4IsxNdFkocmWsAH0roY07IEnzlzZpM5wYPN6qpVq9ozDNPZuKmVsyyrcHJyOh0SElIXhNNqAJELEQQEBAjBI1OhVREAgufj47OBYRg/CMjA/FINEDxQydavXr16yYgRI0zh/vAihOjTp59+uq9er/9XSkqKCxCF2trav7y9vc9FR0f/PGHCBKZHjx48qGpDhgx5vKKiwlSLFgkeFqeH62G1AMFfrSoiIiJqypQppsAD8QeSrv78889dHRwcOqrVaunu3bv/fPHFF/8TEhJiSudwNz/Tp0+XPPzww1RVVRXzxRdf9IKcXE5OTp2rqqqqOI77rk2bNqcmT5785UcffQRKn8kpKSUlRZqTk+PN83ymhQSvuKCgIMK8kkVTJlpQ8FiWnZSSkqKOiIj4/MaNG49jwIfYP8rMRFtH8M6ePavw9/cHxXZubW0tDeRQSPpr8uEDEgu+kdevXwdV7/eRI0cGxMXFHSwtLW0fFBQEVSUmWkLwOI5bvH///vWg4I0cOTKCYRhQ8OimxlUikYgJnp8xLxmQyiaDLFpK8IYOHdq9uroaTLS3U8GD0lpQyWI7RtHSND0D/TJx/MyVcRgjUPAEgqe80+o2mGizsrIg0XGTQRYURd1wd3fvZqwJfQPH+ujRo+zFixdfz8zMfMHo//aYvb29g9Gl5KpOp/tq1KhR3xitDyZfW+jXkSNHnpg/fz7Ux34XnyOcy4IvssmsK0SLw7N3i4m2qflFvicI3E4ECMG7neg+gNcGghcQEJCuVquhrJMpOrUxE61xl78qISFhGZhoGyCBMEeB9JleuHAMmFpiY2MhszE/ZMiQzpWVlf8BYoi7aSR4aKpBZ++2bdtWBwcHQ6LjfxC8e32oQJF75JFH+LZt23KFhYVtBw8eLH3//fc5Ly+v8pKSEsrNzU2H5A5wgTq2J0+e9DFGDG68nQQP1EOFQuHxyCOPqH788cfPeJ5/AgMlzIM50McO0qRgkAWMW1pa2jv5+fnZer3eVHoK67Mi/wI/TjD78jx/0M3NLezQoUM/AcELCQlJ1Wq11hC8cIZhIOebxQQPa9FSFAW+X5YQvLpatNbMreeee66HQqHYWlNTYxHBYxhm844dO8KaaaKFoBXv7777bhsqeBRFQaDELaXKACZMPyRslKBLG/Lz8+f26tULNmYt8qlrLj7jxo2b8p///AfqENf54DX0jpHL5deSkpKeGThwYB3Bw43kyZMn7Y1+mY4PP/ww8/jjj9cuXrxY1b9/f8hZaMpdCRvNwYMHPzZ//nwY89Fi0y/6JmLbhbkNrhLB3333XZ0PXnP7Ro4nCLQmAoTgtSaa5FqwCEtffvnlhNra2mA08wAs4qhYMUwURSXFxMQsHj16tFXZ2H///fd2b7311jXwp8J7INHD+8DiJNRxre3QoUO0g4NDNuQbs+XhglrCY8eOBaUqHs1qmCsP8+nhQg4knGXZXUlJSaHOzs4qHx8f8CGaiMmUUbEA8oXO9oCxQLzOpKSkuLdr107l6el5xGAwdAfVDVO44NhjfjH4nWVZjZ2dXcC33367Gcjo0aNHH5o3b97S2traKSzLyjmOM72XsA4nOOrL5fLLHh4ec4KDg3fCOWVlZa5Q89hgMECuv0Y/gsK3orCwEEq+8dOmTYPks1BGyuSD1ViUt1wu31ZQUBDerVu362lpaR7Z2dnZWq3WHs7DOrKY1wznmWA6/zohIWH8sWPH/rQm2fX58+ef8vX1LdLr9QOa6p+A6Y6cnJzAmpoah8jISKi2UUdIGtg4CTyHD83JyQEzvkNgYGCcwWCIMK8iIh5/JDY0Ta/dt29fzCOPPGJK8XInP4WFhR6Q6BiSIjc2dtAmR0fHckdHx56HDh36w5o2njhx4tGwsLD1BoPBHc5HU7XIF7HubwJOs06dOgXks0UJzq1pKzmHIGCOACF4ZE60KgICwUs0mlSDmiJ4AsFoEcGDihRvv/32dSR4YlMgqg1Y8JxhGGVUVFTU5MmTTWZLW/4AwXN3d48ylpxb1RjBw7JQPM/vTk1NDXnyySfVb731FvgQjQETKQRzoKkOo//gHCBs8LtUKv0qKytrskKh0Lu7u3/KcVwnTIqLiV1RyUVl1Vi+SUPTtD8QPByDDz/8sNu6desir127Nh4S2ALJE/ngXRk8eHB8ampqCh5/8eLFdpB7UaPRmBIyN/ZpCcGTSqWbCwoKIv/8808I0PGVy+XJPM+bkqYhUYaAHAwQgXsB8QN/Ub1eP6G0tPTnptpX3/dA8Pz8/Iq0Wm2zCV5ERAQkY35HHJxhfg+RGhVx9uzZ9PPnzztOnDhxmdFnLQSDWzD/IJ4rzjF5NwkeJCxet26dieA1hC32z8HBocLBwaH7xx9/bFUKEkLwrJm95Jx7BQFC8O6VkbCRdgDBGzx4cGJNTU2QWElraKdN03SLCZ4xjcl1lO/EDvoAKahM4MNVUVEBP5UhISEPDMGbMGFCNJT7bIzgISGWyWS7ly1bFuLm5qaESiRQwgp8KIGs4EIPC7/gf2UiN3CuQqE4lZ2dPdFYLxQSHR8zGAyd4ThcYIUITxMhFJVTAwXP/9SpU3UED8Zqy5YtbX/99dcJJSUlg/R6/dM8z+s5jit3dXX94NVXXy0U+3oJym0iwzBTmnp0IEeKUThcXlBQEA8K3tSpU2fTNA0KHt2UgmfM65f7wQcfzHziiScqZs+ePXH//v0QlWxKA4Il8FDJQ9InqFwH3333Xd+4uDirnOiB4AUEBGxTq9XPN9U/+F4ikRRnZ2fPaK6CB4pdXl7eRoZhFFOnTo2TSqXhGNQiVl3hHmLVypifd93+/fuX3A0FDwgeJDoGgtcQicW/y2SyijZt2nQ7fPiwKU9ncz9A8MLDwxOArIsxIApec5Ekx98NBAjBuxuo2/A9BYKXVFNTM+NOEbx33nkHolxNig8SFoQYCAkSDoVCUTt16tToGTNmPBAK3rhx46DmaqMEDxZxoSTbbogWdXV1rRo/fny8XC4PAtzgg7jCeIrHVFCtDufl5fkD4Zk0adInarUaiJlJ3UMTKybKbYrg4ZiVlJS0UygUD+t0OgNN09Vff/31VXNHfiB4EyZMgFQZnk09TkjwsrOzV8Oxvr6+s4xtirXEROvs7LwlMzMz4plnnrmxc+fOt5ctW5bt7OzcUQj6MJE8VCyxHJVAatdt2bIltlevXlYF6QDBmz59epFKpbJIwbOW4NE0HZGVlWUieNOmTVumVCpDIUUNjBWmp0F8xcEFd5Pgbd++3eO9994jBK+piU++f+ARIATvgZ8CrQsAELxXXnklubq6OhCd6uEOt1PBMyd4Yt95TJMi+ITVzp07N2rixImm1CG2/AETrSUKHiziQPBomt6TnZ0dsmLFipvff/99uFarhcL3puTSQJLF6SAQN8jcb/x7bEZGxtqOHTu6gYKnVqs747ijadw8upmm6XoVvOaMxw8//NDey8sLUmV4NHWeQPCWZWdnxzeX4IEPXl5eXhgQvF27dj21YMGCFJZl38J6uaDegdIJVQmgGgrUXL1+/fo1uVw+48yZM7vrKz3VVHvh+ztE8IC8R27dujWd4ziFt7f3Mo7jQlB1NVfH7hUFTyB4EM3criEsse1yubzCxcWFKHiWTDpyjM0hQAiezQ3p3e2QQPBSq6urA8QtaSghKcuyycuWLVv873//u8qaloMPHphogUOi2iQmeOBD1rZtW1PBc4lEUhseHh7l7e1NCB7LmpQ5IChCQuo9KSkpIS+99NKVgoKCzjk5Octu3LjxjkQicQRs4RgYQ1DqINWInZ3d38aFc9vixYvXDh8+/MqVK1ceHzt27DGdTtcFI6fFyp3YRAs+ePWZaJsz/kDwpkyZkqrT6SY2dZ6Y4Gm1Wj4wMBAVvCZNtDRN5xcWFkb36tXLlEctNze398aNG+fU1taOcXJyUgjVVTAdD/gWnmvfvn3qnDlzSoYNG2aVeocEz9/fv0ij0dxWBQ9MtOfPn9/49ddf23t7e8e4ublFA2EVB+IgvmY+eO/t27cv9m6YaLdt2+YJPniWEDx7e/tyZ2fn7i0x0ZIgi6aeMPL9vYoAIXj36sjcp+0SCN6G6upqv8YIHu6wWZZNWrJkidVRtA0RPLw+RntCW2QyWW1kZCTkwSMETyB4GFlrLNf2QVJSUvDvv//+54QJE7jMzMyHduzY4fP3339PkUgknZVKpUwmk/EymUz9119/XejRo8fG0NDQrZig+qeffnp8woQJRyUSianOJ3ywxBgGWaCJlmEYOMDP3AevOVMeiq+PHz8+ValU3laCJ5FINu/evTvyscceq0uzceDAAdmSJUtWK5XKdx0dHZ1qa2uVCoWikqKoL728vJJCQ0O/a05f6jsWFLw7QPAgJU1YZmZmRv/+/Q19+/adbqwgkwgJitHMDsQcPyITLZQLjDxz5kwGRVG6lva1uecXFxd7golWp9M1qeARgtdcdMnxtoQAIXi2NJr3QF+A4L366qsJlZWVwQ0RPLHph2XZlGXLli1qTQUP1UJckIBYCI7vhOAxzC3qDKb70Ol0ewsKCoJLSkrq0npAPduqqqqhf/75Z+/du3c/pFQq1ePGjfu7S5cu33bq1Ok0lIrDMYYEx2+++eZRvV7/lBAdbfJ9BNO4OB+iEPDRYoIHCp6np2capq9obOq3RMHDKFow0YrvUVxc7FJRUfEqwzCuWq0WyN0NmUx2ztfXt6I1HsM7RPCgksys4uLi1F69emkjIyNf++STT1JlMtkzMHYQoATjV4+CV8YwTMCpU6e+ao2+NvcazSF4crkc0qQ8Q6Jom4syOd4WECAEzxZG8R7qAxC8QYMGgeksABYIWNzBXwnMPrjYg9kUUnDAh+f51Pj4+EWvv/56pTXdAAXvzTffvO7k5ESBGRb9h4C4wP1AgUBCaaxhW+vv7x/l6+v7QCl4TZAf09cODg77EhISggYNGvS7+fE8z9MnT56U//zzz5AK5X/ynNkHTLTjxo07qtFoTAQP/fDABAz1csG0C2MhVBbRQqUTcZqU5o694IOXptVqTfnJmiJ4xkInSzdt2rSmPhMtnNuQjyjLspsLCwsjzQleU/ds6feXLl16ytPTs0in0/3DRCveIKEqKg6yCA8PB+JrUR48g8EQVVRUlA4Eb/Pmzc7r1q1bAc8uqHiY+gXHEvxZNRqNiqbp1NDQ0NWtVVu2uVg1x0Qrk8nKnZycWoXgiYONxOZqjFIXIrJnnjp1KpnkwWvuqJLjbwcChODdDlQf4GsKBC9dq9VOE2fAF5nnTD5fInUtLSEhYdGwYcOsUj6A4I0ePfo6VESA6wKhgH+gQGB0I0YEOjg41E6fPj3Kz8+PEDxhjgLxhjQyxoS6+9atWxc0bNgwKNPU7MoEQPDGjx9/TKVSdRETPMQeCR58x7KslqbpO0LwBDIEVU/+QfCgkoU4nUt9jy3DMFs2b95siqK9k491aWnpU2FhYQ1G0YrbLfhS1qVJAYIHlRcsIPa8RCKJzsvL2wAED45ftGjRU/v371+hVCpH29vby1QqFQWl46qrq3kXFxctx3H7vL29oyMiIn67G7WZoY3NIXhgolUoFLed4OH7jaIoQvDu5INC7tUoAoTgkQnSqgjwPC8ZNGjQ2tra2nAgWrD7B8UO/g8KG9YpFdJz8OCDt2DBgiXWVrIAgvfGG29cl8lkFESDwj3Q7AgLH5A+IDCgItE0bTLRPggK3i+//CIfM2ZMFOTBa2yAETNHR8f9Tz75ZFBRUdFv1kwIDLLQaDS3EDw0z4I/HgZa0DTdKiZaLy+vJhW8RgheHCTHvpcJXmRkZFFNTU2DQRZmSuk/CJ55yiDxuIp8VOcVFxcndu3aFQJfTJ/169fbnzhxIuSHH34Yb29v/xDHcUCE1d27d98wcODA9PDw8LpjrZkrLT3nXiB4YuzFCp4xrQ8heC0dYHJ+qyFACF6rQUkuBAjwPM+8/PLLgSqVCjL+M6imoZkWCAWa6iQSiU4uly+PiIhY3ZDprylUKysrXYcMGVKX6BiOF5fTAoKBvmCg4Pn5+RGCJwIVTdht2rTZN2rUqKC5c+f+w0Tb1BjA90jwtFrtLQQPvkMTH5jsBdKvAwXPqFIVWnLt+o4BE62Pj0+aSqVyb8i8iucJi3GcmYk2DvPgYRvru8/dUvAsTZOCkcpSqXR7dnZ2ECQ6boaCB8/rnJ07dyaLCZ7wHFMLFy7s4Orq2reqqgpq796IjY09Ye14teZ5zSF4UqkUomhbRcETcKmbzzjv0Fwr+J4Sgteag02u1SIECMFrEXzk5PoQWLdu3aAdO3Zs1Wq1nWFRxwUUk+pi5CbDMD9rNJrIs2fP7rPW3IOlyiQSCQUqHeQjg+ujuRYrFcDLGEqVBQUFgYn2gUh0jHnwGpulMD7Ozs4mE+348eNbRPDARKtWq28heOKyZVjeDCIvWZb1+/rrr1tE8EDB02g0dT549RE9US7GOoIXEBAwk2XZpUDwMEq0IZIokUi2Qi3aO22iBR88d3f3bTzPN1rJAvMTsiy7PScnJ6iqqso+IiIijeO4d5GQ1Df+qGxKJJJ527ZtSzInePfymw0THev1+iZLlSkUCsiD968PP/zwmjV9EkqVQc1jUyULDCASv1fE9WkZhok+efJkCvHBswZtck5rI0AIXmsjSq5n98UXXzjNmjVrpk6nm63X6x2wJq14x2tnZ1crkUhSR44cuTIuLs6qHHgANRC8ESNGQGJZGl/AQPAgwAJzecELWCAytUDwHpQ8eJMmTYo2GAyNmmgBJ6Ek2d709PTg+oIsLJnSGGShVqtvCbIQfO5MZnP4J9Sj1UulUr9vvvmmwJJrN6LgpapUqlvSpJgTNYHgQSBtbHZ29trq6mouIiIimqKo5ZYQPKlUuq2wsDC8W7dukGvxjn0wyAJq0TamUIoI3racnJwQIHiRkZGQBHisONG4ecPRRKvT6ebv2bMn4X4jeGvWrIE8eO0bwgb7Z29vXymXy58+duyYVeNnXovWnOBhEm/EmmXZ2aWlpZBqpi7C/I5NGnIjgoAZAoTgkSlxWxCAclMrV66M02q1vhRF2YO/k2Au5eVyea1ard5hNPuEjRkzRmVehqo5DSorK3P19fW9XltbS4EjP/j7AYmAKF2M3qysrDT9Dvd1cnKadfjwYcjf1exAgua0624fC5Us3N3do3ieX9VYW8B8DWZzhULxQXx8fDAkOram7UDwxowZ84lWqzWVKsMFT0hPYyJ3+KFpWu/o6Bjw2Wef5Vs7DoKJtkmCJ1Jdlufl5a2ura3lAgMDZ1IUtQzmCbarIaIglUq3lJSURIjz4FmDT3PPOX78+FNz5szZVlNTY1LwGiN5gLdEIqkjeBEREakGg2FMY/dEBc9gMMzdtWvXP0y0zW3vnTy+qKhoEuTB0+v1bk0RPGPQQ3Xnzp2f3rVrl1W1aL/44otHIiMj1+v1etNGoj4FT5zEmxC8OzkTyL2aQoAQvKYQIt9bjUBxcfHT6enp0bBIcRzH6nQ6PcuyN3v16rXD0dGxqHv37rqWOmy/8sorbpWVlX+BGoMNhZcwqHfg9weED6IAIfiiTZs2ysceeyx6+/btGVZ36j45saysTOrh4RHKMMxarPJRX9MxEbS9vf2exMREUyULa7oIiY49PDyOgQ8ekjrxeIjLXMnlcn2HDh389uzZY7WCd+nSJTcPD480nU5nMp2JP+JFXxREYTLRCgoeBJ+ssCTIgqbpom3btoXdaQUPnp1169ZtV6vV/bBv9ZEZTN0hk8m2FhcXh/z222/20dHRkAR4PJKR+sYTCR7P81FQqgyjaK0Z+zt9ztatWz2EShZNKngODg6VAwYM6Gqs0tISE+16cb5F9HsUWySEOQ9RyXO++eYbouDd6UlB7lcvAoTgkYlxWxHIzc1tU1lZ2VGtVkvt7e3VxlqX16KioqxKiVJfQ994443H//zzz18F019dzjtMbgy7a1CpwDfPYDBUh4WFgYk2+7Z2+h64eGlpqWTatGmQzyzFzs7OZL5uiCgI/om7N2/eHNK9e/er1jR/9erVT3zwwQef1tTUdILrYdQsXAtJJJqzJBKJdunSpdNGjRq1xZp7wTmnTp1ymzFjRoZWq61TquqLiBUpLvN2796dBGXWxowZE8YwTDzk9xOXtauvLSzLvp+ZmRncr18/qwiCtf174YUX/sVx3Ha9Xt8X+wXXakixomm6cOfOneG1tbVyb2/vRJ7nJ6KfWCMEz6DT6UIKCgpyBgwYcMcrUliLTXZ29uTU1NRkOzs7VzE24uvh32Uy2c2PPvroX87OzlaluTl69Ohjc+bMSdRoNOMwYAzeNbCBxHcMzms7OzuOZdmw0tJSsBD8XwkQa147A/MAAB0ySURBVDtKziMItBABQvBaCCA5/e4i8Pzzzz+k1Wp/lkql9mieFb+AgWjAQgcKnqOj4425c+dGTJgwwWpicXd7a/ndjx49yoaHh0MuwnQLCV7J5s2bw6wleMXFxU+sXbv2U7Va3QlaKTZ/Cnna6nwitVqt9qWXXpq2ceNGq8ehuQTPYDAsAF8zIHjjxo0LN7oNxP+PLzX+CmQYZkdWVlbInSZ4SUlJXbdu3Vqs0WisIXgJPM9PsoTgcRwXcO7cuYL7iZDk5uZ6pqSkQJR+u6YInoODw81Ro0b9a8GCBVYRvAMHDjy2aNGiRIPBMA7fJTC/ceOARE/AGtI+RZaWlm4gPniWv6vIkbcPAULwbh+25Mp3AAEI6IiOjv5YqVSafJXA1w4jd+EnvIDBxwyCCSQSyY9BQUGhXl5eR+5A0+7qLYDgRURETKUoCszRTSp4NE3v2rJlS6i1BK+0tPSJwMDATzmO64TBFOJIQxgH9MuD9DhTpkzxjYqKahHBCwoK2qjRaMYi0A3ltBNMajH79u17T61Wc0DwaJoGBa9JgkfT9PbMzMzQAQMGWOWkb+0kOH36dNfp06cX63Q6iwgewzAF77//fkQzFTzOYDAEpKSkFIjLzlnb5jt1HhI8juOarEUrkUhupKWldRs4cKBVBO/w4cOPzJ49e52dnd0k3LiAVQDdEND/DgmeEEWbSgjenZoN5D6NIUAIHpkf9zUCYGYbMWKE+99//53FsqwjpEfBFzAEXYD5BNQ7iUQCu+tDM2fODPLw8Lh8X3fagsYDwQsLC/NhGAaqdtzynNcXacqy7K7CwkKrCd5//vOfJyZNmnSM5/nOmHcQxgHTpGBuQiDdDMPokpKSfF999dU7RvDECt67774bIZFIVjfmm4gQg4KXkZERfKcJ3ldffdU1MjJyh1qt7mOJibYFBG96SkpK/v1E8HJycjzARMtxXJNpUpycnK4fOHCgu7UmWiB4c+fOXQ8mb0zzA/MbXULgWcIqFiDsMQwDUbRJhOBZ8JIih9x2BAjBu+0QkxvcbgTOnj3bYcWKFfN+/PFHb4qiXFmWpVQqlZ2Tk5MpBYiTkxN//fr1X7p06bLswIEDebe7PffC9QWC580wzKY7QfDKysqe8PX1PcZxXGfMQYhpajBtDZjQgXRzHKebP3++b0tM5WCibY6ChwQPxuadd96JZBim0ehiEcHblZOTM6NPnz5WRWFaOxcOHz7cdfny5cVVVVW3W8GzaYKnUCiuFxcXd7c2Chp88GbNmpVgZ2c3HuexmODB+GKqGsH3dDYJsrB21pPzWhsBQvBaG1FyvbuCAOSrSklJmXz69GlPR0fH3hAhWVVVRTEMc1OhUHzv7Oy8fvXq1R/cT87kLQESqoj07t0bFLxGCR76ErVUwQMTbUhIyDGdTmdKbg0mcVA80G8Jq5dAZLNcLteFhob6Tp48uaUKXjo4v1tiotXr9YsPHDiwDnzwRo0aFcWy7EpM59IYzizLlmRmZs640z54oOBFRUUVq1QqQvDMBig3N3dSSkpKiiUKHsMw10+ePNmdoiirTLSHDh16fP78+Ykcx5lcAcT+vfA7KtMiEy1R8Fry4iLntioChOC1KpzkYncTgbKyMserV692X7RoUR+O4zrq9Xrwsfp18eLF58aOHXv2brbtTt+7uQRPIpHsLigosDqKFhQ8f39/SJPSWezcj+XJcCEEFUQqlepiYmJ8WxpFGxQU1CTBE0XRLtm3b99a9MGjKApMtJCcsdGhoWk6t6CgYFavXr1u3skxBB+8gICAYkujaFtgor0fffCA4IGJ1q2hMUGzNphoi4qKrFbwBBPtOp1ONwk2K7gpEFevECl4YKINO3ny5Mb7KWjlTs5rcq87iwAheHcWb3K3O4BAcXEx8/zzz0suXza52unvJ/+i1oLnbhC8adOmHdNoNJ0xTxioHfB/VPLAbA4KHpho16xZ4ztixIjbruCJCJ4pyOKxxx7T9O7dezzDMOk8z7s2kSYFUl0s2bBhQ8JLL72kaq2xseQ6J06ceHrmzJk77oCCd18SvOTkZIiibZLgyWSya0eOHOnu4uJiFUE/cOCA8+LFi5dqNJpwmUxGCT6k5sod+v3qGIYZf+rUqb3WJvC2ZG6QYwgCliJACJ6lSJHjCAL3EQIYZCGRSDZhmTCM/ENSgyoHqGrOzs57NmzYENK3b1+rEh2bK3iodIgJHvwN2sLzvG716tW+//73v1tE8MLCwtIrKirGQZQ0lqMDlQWIJSzEcD9UXQwGw5IDBw6sffzxx1X79+/vGxcXB3VsB1EUZYowxnaiw7xMJuPVavUvDz/8sP+hQ4eO3umhB4IXFRW1Q6vV9sWgFegX/B/6BUQZxg0/BoOh4PPPP4+4cuWK3MfHJwkS84rLaInbj9HM3P8+9x3By8jIeDczMxOqdTyKfcH5BpsJ8PME31vASyaT/Xr48OG+bdq0KbdmDCGI6+233572559/rtFqtW0BU0icXl5ebhoDmF8w1+C+Dg4Of2dkZLzdr1+/UmvuRc4hCLQ2AoTgtTai5HoEgXsAAUyTQtM0RNGaPvVFY6LKJpPJ9qSlpbWI4Pn5+R3VaDRdxOQO7isuByYoarrY2Fjf0aNHW03woJLFuHHj0mianoAmMrg2RlCDDyD8DgEfsAhLJJJlOTk58X369KmF9ChjxoyZ9J///Oc9iUTyKERZAykAogjHg/pSVVVV7uTktGH+/PkJ7u7uVqk/LZkGaWlpT+fn5xdpNJr+0BdsI5I2+ImpZ+A+Dg4OWyDNzY0bN+xDQ0NTtFrtOCAemIy3IYJnZ2c3PSkp6b6Koi0qKnomLi5uo0KhGAK4ANECjCCIB5NqAwkTNjLb9+zZ4/fQQw/VWjse2dnZ3eLj4+PkcvloZ2dn+W+//WbXoUOHOmIHJBPSM2m12qN5eXn+zz777M/W3oucRxBoTQQIwWtNNMm1CAL3CAKo4NE0vQkXeSxrhWZLoTawiQBRFLU7Ly8v1FoF7/z584/7+fmZSpWJCR76KmFELXwHefAginbs2LFWE7zPPvvMbcGCBRuqq6tNJbnEyZRRxYEFHxZ+6KdOpzMlOu7cubMahigtLc1x165dU69evTrb1dX1iaqqqjpyIJVK/zBGA+e/+OKLGenp6b9SFPV/hXTv0Pi++OKLTxsMhm1qtXoA9AGUOyR0QGiE6HAToYW/cxxXsG/fvgiGYRxGjx6dQlHUWEsIHsdx910UbW5urnz9+vUL7OzsouRyuSNgA30FkgXY3Lx500TY1Wp1hYODQ8C3335b0pIxBJePvXv3Djh37txCjuPeZlmWhjGBOQObArhndXX1DePfYhMTEzcNGzbMNMfIhyBwtxEgBO9ujwC5P0HgNiAAPnh9+/b14Tguuz4VB24JxAcTQdM0DUEWod26dbPKRAsED4IsQMETdwcIHiyGYt8llmV1cXFxLQqyAIIXFRW1wWAwgD+dSXmDUlLYJyCtaKaDxV6j0awoLCxcBQoetu/q1asOFy9e7BsaGuqlUCgGUhSlUKlUZVKpNKtnz56njEEn1+6WL1Xv3r0hd1txdXV1b+iL2NwK/wfyCsRCqLEMRC+9sLBwrlKpdAoODk6pqakZC+QDcK8v76FgLjdwHBd4v+XBg/Hr37//E1qtttjOzu4F8I0DkofmWsBLrVbrZTJZdlhY2OJp06a1qMwcKL47duyQpKend75582a0nZ3dSAjigtyaFEVpeZ4/o1QqU/39/Y/MmjXrjibEvg2vDnJJG0KAEDwbGkzSFYIAIgAKXkhIiLdUKt0ECxQSOlzsxaoXLI4cx+3Kz88P7devn1W1aMUKHrYBTcJI8NCECgreypUrW+SD99tvv7mOGjUKSnJ5OTg4UEDmxEmV0ZcOSJ9Go+EdHBxmbtq0Ka1Xr15a81kCRM/BwUGWmZkp++CDDzSff/55ZUsUn9aYhUOGDHm8uro6QSKRjNHpdDSqcXBtGC/0MwPVSiqV8nq9fvXevXuXV1RUuHh4eKTY29uPq6mpMfmhNULwoJJFYGpqat79GIjk5+fnc+7cuZVVVVWOLi4utMFgAKJnkEqltWCynjJlSnxgYGCrEq5Dhw4p4uLi2qtUKjeFQsFAlO6GDRtudOrUqZpEzrbGzCfXaE0ECMFrTTTJtQgC9wgCoOBNmjRp7E8//bSR4zhXsR8cNBEDHgS1g3NxccnctGnTQmvTgQiJjo+CiRaDOfCeQDLAlIiEz97eXjtr1qxpLUl0XFxcbL9u3brplZWVy2UymaM42awQyFGn6Ol0uj8fffTRGfv37//gbilyzZ0WGRkZkpSUlJH29vbLr1+/3q19+/YMqK1oisSIZCCvDMP81rlz58CSkpLD3377bYewsLBEtVptqrxgAcGbkZqamns/EjzANCQk5Mna2tpnaJpu5+Liwv79999/d+/e/fvFixf/0lzMLT1etGHiLT2HHEcQuBsIEIJ3N1An9yQI3AEEFi1a1O3AgQMbeJ5/DcmVONACm+Dg4FDeu3fvqIyMjM3WqhBoolWr1f8geKgeou8fJDoePHiw/5o1awqtJVzgF/XFF190OX369Ppr1679Wy6X0xg9i4QSfoLgxfP8lsWLFy8cN27cH3cA9la5BZCItWvXOpw4ceLd33//PdJgMDwHeXbBFN22bVu7K1eu2Lm4uBh4nv+pd+/eqTExMQVdu3atOnXq1CP+/v7JOp1uHKiX4kAMbJgoipbnOC4iLy9v44OSALxVBodchCBwnyBACN59MlCkmQSB5iLQv39/B71eP5OiqHkQaInKHfwExUvw64LcXQf69es3Jysr68fm3gOP/+mnnx738vI6qlQqnxIreGgqxdx4wr31crk88MSJE3ktNYUGBga+/vXXXyfa2dk9wzAMBT5pYLYUTNDgY3Z80KBBUZmZmaes7dvdPO/s2bOKH3/8sQ/kDaRpekR1dXV76KdUKq3QaDQf9ujR44MVK1Z8AuQO2vnVV189Fh4evkGtVo8CdRajisV9EBE8MN/Oe//99xO7du2quZv9JPcmCBAEWh8BQvBaH1NyRYLAPYPA4sWLny8uLk6VyWTPQ2UP8N2CBR5MfAzDGGiaPjx48ODoIUOGXHJ3d4fEvlZ9rly58vjIkSOPUhT1FJp/MbgD8/DBhYUi7Tqe5wPPnDkDBK9FZq5Lly7Jli9fPvDcuXPLamtrh7i5uZkCLqANSqXy8HPPPTd3y5Yt51pKJK0CpRVPKi0tbf/TTz89sXz58vZ6vV4jk8mqcnNzf3/uuecqKIrS4a2A4EVFRaVrtdqR4KuHY4CkTtwkwYS+YOfOnesJwWvFwSKXIgjcIwgQgnePDARpBkHgdiAApr7Y2NiukEJDr9e/rtVqnRiGAbUGfJXed3d3TykvL9cHBgbWkQRr2gEEz93d3aTgYTCFuEoEOvoLf9MpFIrpn332WX5LCR60Ffp4+fJlWVhYWA+1Wv2aTqczMAzzaXZ29gVMi2JNn+7Hc44ePfrY/Pnz03U63UiMoEVF1dw8jwRPnD7mfuwzaTNBgCBQPwKE4JGZQRB4MBCgpk6d6iKXy//F83w5z/NXMjMzlTExMXRcXFyL87yhiba2tvYpiJpF1Q4VJDAVYvADRNHq9frp586daxWCJx6+B90BHhS8yMhIk4KH/neE4D0YDzjpJUHAHAFC8MicIAgQBFqMABC8SZMmHdXr9U8JZlgTocM6tJj8GG7k6Oiou3btWsDFixcLWkPBa3HjbegCSPDUajXkajOZ45sgeAv37Nmz/kFTOm1oyElXCAINIkAIHpkcBAGCQIsRABPt6NGjoWbrU2AaxAoWQC4w0AL+BqoSwzA6JyenAGMULCF4LUb+1gsIQRbpGo1mJH5DCF4rg0wuRxC4TxAgBO8+GSjSTILAvYzA5cuXHx41atQehmGex6oLDdW+lUgkqokTJ06Ljo4uupf7dD+2DQheWFjYBr1ePwqIHUbRNhJkQRS8+3GgSZsJAhYgQAieBSCRQwgCBIHGEfj++++d/P39l5WXl4fa29sz6HOHCYgx6bGQnuW/vr6+08PDww8TXFsXgRMnTjwKPng6nW4UVishPnitizG5GkHgfkGAELz7ZaRIOwkC9zACPM/TPj4+I4zpPFIlEkkX9L2DnxhNC8EX8NHpdMf69u0bmp+f/9093KX7smlA8KKjozdoNJp3wBxuSZoUEkV7Xw41aTRBoEkECMFrEiJyAEGAIGAJAkePHm0TFBTkp1AoZnIc9zCQOyB1oCCp1Wo7mUzGazSa8n79+q0LDw9PHDBggNKS65JjLEcACF5ERMQGg8HwDkYyo4InvgqqexzHLdi7d28CCbKwHGNyJEHgfkGAELz7ZaRIOwkC9wECQPIyMjJGnD9/frCDg0N/g8HQnmVZGvLulZeXX3zhhRcOh4WFHRs0aNBf90F37rsmAsELDw9PMxgMo9EsDp3APITYIfSPNBgMhODdd6NMGkwQsAwBQvAsw4kcRRAgCFiIAM/zrLe3t0yv19svW7aM3r59O/XMM8/oe/Tooe3WrZvS2nq3Ft7+gT4MCF5YWFgax3GjxWXKGiJ4xioYC3ft2kXSpDzQs4Z03lYRIATPVkeW9IsgQBB44BD44osvHomIiEjlOG6MOIK2PiAEMy2Jon3gZgnp8IOCACF4D8pIk34SBAgCNo8ApEkJDQ3dwHHcKLGJtqGOGwyGuSUlJUmkFq3NTw3SwQcQAULwHsBBJ10mCBAEbBMBgeBtNBgMb0MPzevPmvcagixIFK1tzgXSK4IAIXhkDhAECAIEARtBoLS09OHAwMBknU43HtPTNNY1juOitm7duqFXr15aG4GAdIMgQBAQECAEj0wFggBBgCBgIwicO3eurY+Pz1KtVhvCsixlHlwh7ibP82oHBwfPN954Y09cXBxnIxCQbhAECAKE4JE5QBAgCBAEbAuB0tJSydKlS6f++uuv71EU5SLU/jWZahmGMZUuA988e3t7u9ra2tOZmZnTXn755TO2hQLpDUGAIAAIEAWPzAOCAEGAIGBDCOzbt++ZefPmJfM8/5pMJqNBxdPpdCaCBz9lMhn81LAsu2HdunVLhw0bVmFD3SddIQgQBIiCR+YAQYAgQBCwPQSEsnGvnj9/PkmlUvWSy+WmjTyQO6gsAqqeXC7//qWXXgpNTk7+2PYQID0iCBAEiIJH5gBBgCBAELAxBGJiYuiePXuyRUVFfS5evBhNUdSbNE23USgUdhqNBsy1ZSqVKrlTp05bDx06BImneRuDgHSHIEAQICZaMgcIAgQBgoDtIgBq3vDhwx9u06bNvxiGaVddXX3liSeeOJuZmUnqANvusJOeEQRMCBAfPDIRCAIEAYIAQYAgQBAgCNgYAoTg2diAku4QBAgCBAGCAEGAIEAQIASPzAGCAEGAIEAQIAgQBAgCNoYAIXg2NqCkOwQBggBBgCBAECAIEAQIwSNzgCBAECAIEAQIAgQBgoCNIUAIno0NKOkOQYAgQBAgCBAECAIEAULwyBwgCBAECAIEAYIAQYAgYGMIEIJnYwNKukMQIAgQBAgCBAGCAEGAEDwyBwgCBAGCAEGAIEAQIAjYGAKE4NnYgJLuEAQIAgQBggBBgCBAECAEj8wBggBBgCBAECAIEAQIAjaGACF4NjagpDsEAYIAQYAgQBAgCBAECMEjc4AgQBAgCBAECAIEAYKAjSFACJ6NDSjpDkGAIEAQIAgQBAgCBAFC8MgcIAgQBAgCBAGCAEGAIGBjCBCCZ2MDSrpDECAIEAQIAgQBggBBgBA8MgcIAgQBggBBgCBAECAI2BgChODZ2ICS7hAECAIEAYIAQYAgQBAgBI/MAYIAQYAgQBAgCBAECAI2hgAheDY2oKQ7BAGCAEGAIEAQIAgQBAjBI3OAIEAQIAgQBAgCBAGCgI0hQAiejQ0o6Q5BgCBAECAIEAQIAgQBQvDIHCAIEAQIAgQBggBBgCBgYwgQgmdjA0q6QxAgCBAECAIEAYIAQYAQPDIHCAIEAYIAQYAgQBAgCNgYAoTg2diAku4QBAgCBAGCAEGAIEAQIASPzAGCAEGAIEAQIAgQBAgCNoYAIXg2NqCkOwQBggBBgCBAECAIEAQIwSNzgCBAECAIEAQIAgQBgoCNIUAIno0NKOkOQYAgQBAgCBAECAIEAULwyBwgCBAECAIEAYIAQYAgYGMIEIJnYwNKukMQIAgQBAgCBAGCAEGAEDwyBwgCBAGCAEGAIEAQIAjYGAKE4NnYgJLuEAQIAgQBggBBgCBAECAEj8wBggBBgCBAECAIEAQIAjaGACF4NjagpDsEAYIAQYAgQBAgCBAECMEjc4AgQBAgCBAECAIEAYKAjSFACJ6NDSjpDkGAIEAQIAgQBAgCBAFC8MgcIAgQBAgCBAGCAEGAIGBjCBCCZ2MDSrpDECAIEAQIAgQBggBBgBA8MgcIAgQBggBBgCBAECAI2BgChODZ2ICS7hAECAIEAYIAQYAgQBAgBI/MAYIAQYAgQBAgCBAECAI2hgAheDY2oKQ7/7/dOqYBAABAGObf9XwslUDhgAABAgQIECDg4NkAAQIECBAgQGAm4ODNChWHAAECBAgQIODg2QABAgQIECBAYCbg4M0KFYcAAQIECBAg4ODZAAECBAgQIEBgJuDgzQoVhwABAgQIECDg4NkAAQIECBAgQGAm4ODNChWHAAECBAgQIODg2QABAgQIECBAYCbg4M0KFYcAAQIECBAg4ODZAAECBAgQIEBgJuDgzQoVhwABAgQIECDg4NkAAQIECBAgQGAm4ODNChWHAAECBAgQIODg2QABAgQIECBAYCbg4M0KFYcAAQIECBAg4ODZAAECBAgQIEBgJuDgzQoVhwABAgQIECDg4NkAAQIECBAgQGAm4ODNChWHAAECBAgQIODg2QABAgQIECBAYCbg4M0KFYcAAQIECBAg4ODZAAECBAgQIEBgJuDgzQoVhwABAgQIECDg4NkAAQIECBAgQGAm4ODNChWHAAECBAgQIODg2QABAgQIECBAYCbg4M0KFYcAAQIECBAg4ODZAAECBAgQIEBgJuDgzQoVhwABAgQIECDg4NkAAQIECBAgQGAm4ODNChWHAAECBAgQIODg2QABAgQIECBAYCbg4M0KFYcAAQIECBAg4ODZAAECBAgQIEBgJuDgzQoVhwABAgQIECDg4NkAAQIECBAgQGAm4ODNChWHAAECBAgQIODg2QABAgQIECBAYCbg4M0KFYcAAQIECBAg4ODZAAECBAgQIEBgJuDgzQoVhwABAgQIECDg4NkAAQIECBAgQGAm4ODNChWHAAECBAgQIODg2QABAgQIECBAYCbg4M0KFYcAAQIECBAg4ODZAAECBAgQIEBgJuDgzQoVhwABAgQIECDg4NkAAQIECBAgQGAm4ODNChWHAAECBAgQIODg2QABAgQIECBAYCbg4M0KFYcAAQIECBAg4ODZAAECBAgQIEBgJuDgzQoVhwABAgQIECDg4NkAAQIECBAgQGAm4ODNChWHAAECBAgQIODg2QABAgQIECBAYCbg4M0KFYcAAQIECBAg4ODZAAECBAgQIEBgJuDgzQoVhwABAgQIECDg4NkAAQIECBAgQGAm4ODNChWHAAECBAgQIODg2QABAgQIECBAYCbg4M0KFYcAAQIECBAg4ODZAAECBAgQIEBgJuDgzQoVhwABAgQIECDg4NkAAQIECBAgQGAm4ODNChWHAAECBAgQIODg2QABAgQIECBAYCbg4M0KFYcAAQIECBAg4ODZAAECBAgQIEBgJuDgzQoVhwABAgQIECDg4NkAAQIECBAgQGAm4ODNChWHAAECBAgQIODg2QABAgQIECBAYCbg4M0KFYcAAQIECBAg4ODZAAECBAgQIEBgJuDgzQoVhwABAgQIECDg4NkAAQIECBAgQGAm4ODNChWHAAECBAgQIODg2QABAgQIECBAYCbg4M0KFYcAAQIECBAgECm+iGdlVf8tAAAAAElFTkSuQmCC;clipPath=inset(29.79% 19.99% 29.26% 54.67%);" vertex="1" parent="1">
          <mxGeometry x="60" y="298.7" width="81.57" height="82.6" as="geometry" />
        </mxCell>
        <mxCell id="Aqbx8FXfRSqF5MCxFeAb-13" style="edgeStyle=orthogonalEdgeStyle;shape=connector;curved=0;rounded=1;orthogonalLoop=1;jettySize=auto;html=1;entryX=0;entryY=0.5;entryDx=0;entryDy=0;strokeColor=default;align=center;verticalAlign=middle;fontFamily=Helvetica;fontSize=11;fontColor=default;labelBackgroundColor=default;endArrow=classic;" edge="1" parent="1" source="uOOk_8QC0o-31qwOpP6n-8" target="Aqbx8FXfRSqF5MCxFeAb-10">
          <mxGeometry relative="1" as="geometry" />
        </mxCell>
        <mxCell id="uOOk_8QC0o-31qwOpP6n-8" value="Audio Module" style="rounded=1;whiteSpace=wrap;html=1;strokeColor=#b85450;align=center;verticalAlign=middle;fontFamily=Helvetica;fontSize=11;fontColor=default;labelBackgroundColor=none;fillColor=#f8cecc;" vertex="1" parent="1">
          <mxGeometry x="300" y="360" width="90" height="36.62" as="geometry" />
        </mxCell>
        <mxCell id="Aqbx8FXfRSqF5MCxFeAb-9" style="edgeStyle=orthogonalEdgeStyle;rounded=0;orthogonalLoop=1;jettySize=auto;html=1;exitX=0.5;exitY=0;exitDx=0;exitDy=0;entryX=0.5;entryY=1;entryDx=0;entryDy=0;" edge="1" parent="1" source="Aqbx8FXfRSqF5MCxFeAb-2" target="Aqbx8FXfRSqF5MCxFeAb-6">
          <mxGeometry relative="1" as="geometry" />
        </mxCell>
        <mxCell id="Aqbx8FXfRSqF5MCxFeAb-2" value="Transcription" style="rounded=1;whiteSpace=wrap;html=1;strokeColor=#d79b00;align=center;verticalAlign=middle;fontFamily=Helvetica;fontSize=11;fontColor=default;labelBackgroundColor=none;fillColor=#ffe6cc;" vertex="1" parent="1">
          <mxGeometry x="180" y="330" width="120" height="20" as="geometry" />
        </mxCell>
        <mxCell id="Aqbx8FXfRSqF5MCxFeAb-7" style="edgeStyle=orthogonalEdgeStyle;rounded=0;orthogonalLoop=1;jettySize=auto;html=1;" edge="1" parent="1" source="Aqbx8FXfRSqF5MCxFeAb-6" target="Aqbx8FXfRSqF5MCxFeAb-8">
          <mxGeometry relative="1" as="geometry">
            <mxPoint x="430" y="322.5" as="targetPoint" />
          </mxGeometry>
        </mxCell>
        <mxCell id="Aqbx8FXfRSqF5MCxFeAb-6" value="&lt;div style=&quot;&quot;&gt;&lt;i style=&quot;background-color: initial; font-size: 11px;&quot;&gt;Only as we show willingness....&lt;/i&gt;&lt;/div&gt;" style="text;html=1;align=center;verticalAlign=middle;whiteSpace=wrap;rounded=0;" vertex="1" parent="1">
          <mxGeometry x="190" y="282.5" width="90" height="30" as="geometry" />
        </mxCell>
        <mxCell id="Aqbx8FXfRSqF5MCxFeAb-11" value="" style="edgeStyle=orthogonalEdgeStyle;rounded=1;orthogonalLoop=1;jettySize=auto;html=1;curved=0;" edge="1" parent="1" source="Aqbx8FXfRSqF5MCxFeAb-8" target="Aqbx8FXfRSqF5MCxFeAb-10">
          <mxGeometry relative="1" as="geometry" />
        </mxCell>
        <mxCell id="Aqbx8FXfRSqF5MCxFeAb-8" value="Text Module" style="rounded=1;whiteSpace=wrap;html=1;strokeColor=#6c8ebf;align=center;verticalAlign=middle;fontFamily=Helvetica;fontSize=11;fontColor=default;labelBackgroundColor=none;fillColor=#dae8fc;" vertex="1" parent="1">
          <mxGeometry x="305" y="280" width="85" height="35" as="geometry" />
        </mxCell>
        <mxCell id="Aqbx8FXfRSqF5MCxFeAb-14" style="edgeStyle=orthogonalEdgeStyle;shape=connector;curved=0;rounded=1;orthogonalLoop=1;jettySize=auto;html=1;strokeColor=default;align=center;verticalAlign=middle;fontFamily=Helvetica;fontSize=11;fontColor=default;labelBackgroundColor=default;endArrow=classic;" edge="1" parent="1" source="Aqbx8FXfRSqF5MCxFeAb-10">
          <mxGeometry relative="1" as="geometry">
            <mxPoint x="490" y="332.99" as="targetPoint" />
          </mxGeometry>
        </mxCell>
        <mxCell id="Aqbx8FXfRSqF5MCxFeAb-10" value="Fusion" style="whiteSpace=wrap;html=1;rounded=1;rotation=-90;direction=south;strokeColor=#9673a6;align=center;verticalAlign=middle;fontFamily=Helvetica;fontSize=11;fontColor=default;labelBackgroundColor=none;fillColor=#e1d5e7;" vertex="1" parent="1">
          <mxGeometry x="417.5" y="325.49" width="60" height="15" as="geometry" />
        </mxCell>
        <mxCell id="Aqbx8FXfRSqF5MCxFeAb-15" value="$$P(\text{spoof})$$" style="text;html=1;align=center;verticalAlign=middle;whiteSpace=wrap;rounded=0;" vertex="1" parent="1">
          <mxGeometry x="490" y="317.99" width="60" height="30" as="geometry" />
        </mxCell>
        <mxCell id="Aqbx8FXfRSqF5MCxFeAb-19" value="DADA" style="text;html=1;align=center;verticalAlign=middle;whiteSpace=wrap;rounded=0;fontFamily=Helvetica;fontSize=11;fontColor=default;labelBackgroundColor=default;" vertex="1" parent="1">
          <mxGeometry x="280" y="237.5" width="60" height="30" as="geometry" />
        </mxCell>
        <mxCell id="Awp-KtZ6_jD68mkfCNg0-1" value="Audio" style="text;html=1;align=center;verticalAlign=middle;whiteSpace=wrap;rounded=0;fontFamily=Helvetica;fontSize=11;fontColor=default;labelBackgroundColor=default;" vertex="1" parent="1">
          <mxGeometry x="70.79000000000002" y="380" width="60" height="30" as="geometry" />
        </mxCell>
      </root>
    </mxGraphModel>
  </diagram>
</mxfile>
